<svg width="551" height="208" viewBox="0 0 551 208" fill="none" xmlns="http://www.w3.org/2000/svg">
<g id="404">
<path id="Vector" d="M152.599 88.1653C152.322 87.4345 151.855 86.7739 151.237 86.2382C151.009 86.0477 150.762 85.8762 150.5 85.7258C148.409 84.4699 145.284 84.1884 143.296 85.7258C143.096 85.8821 142.911 86.0535 142.743 86.2382C142.15 86.895 141.542 87.5373 140.917 88.1653C139.891 89.219 138.841 90.2367 137.743 91.2255C137.431 91.4997 137.118 91.7812 136.798 92.0555C136.614 92.2215 136.429 92.3803 136.245 92.539C135.54 93.1453 134.819 93.7299 134.09 94.3073C133.705 94.6177 133.32 94.9208 132.928 95.2167C132.343 95.657 131.758 96.0973 131.165 96.5231C131.109 96.5592 131.053 96.5952 130.997 96.6386C130.981 96.6458 130.972 96.6602 130.956 96.6675C130.948 96.6675 130.94 96.6674 130.932 96.6819C130.911 96.6896 130.891 96.702 130.876 96.718C130.7 96.8262 130.58 96.8984 130.492 96.9633C130.524 96.9489 130.556 96.9273 130.588 96.9128C130.444 97.0139 130.291 97.1149 130.147 97.216C128.745 98.147 127.311 99.042 125.844 99.8792C122.216 101.971 118.406 103.793 114.45 105.328C114.185 105.422 113.913 105.523 113.641 105.617C103.284 109.439 92.0486 110.93 80.9078 109.962C79.7699 109.883 78.6321 109.774 77.4943 109.637C76.1802 109.464 74.8741 109.255 73.576 109.017C68.6341 108.128 63.7986 106.814 59.1367 105.09C53.305 102.685 47.7585 99.754 42.582 96.3427C41.7807 95.8302 40.9714 95.3178 40.1621 94.8198C41.0836 92.7845 41.9891 90.7491 42.8705 88.6993C43.3112 87.7106 43.7359 86.7218 44.1525 85.7258C47.4298 78.0536 50.5068 70.3093 53.4555 62.5361C56.4363 54.6618 59.2489 46.7419 61.8931 38.7762C62.1656 37.9679 62.43 37.1595 62.6864 36.3512C64.0727 32.1434 65.4028 27.926 66.6768 23.6989C66.797 23.2876 66.9253 22.8834 67.0374 22.472C67.406 21.2594 67.7666 20.0469 68.1192 18.8344C68.9205 16.0989 67.1095 12.8295 63.9204 12.1727C62.3849 11.8181 60.7566 12.0141 59.3784 12.7196C58.0003 13.4251 56.98 14.5849 56.5325 15.9546C56.1879 17.1238 55.8434 18.2859 55.4908 19.4551C53.8001 25.1063 52.0212 30.7383 50.1542 36.3512C49.8818 37.1595 49.6093 37.9679 49.3369 38.7762C45.2183 51.0026 40.6963 63.1063 35.771 75.0872C35.1781 76.5379 34.5771 77.9838 33.9681 79.4249C33.6716 80.1322 33.3752 80.8396 33.0707 81.5469C32.4857 82.9398 31.8848 84.3328 31.2838 85.7258C30.9392 86.5413 30.5866 87.3569 30.2341 88.1653C30.0017 88.6777 29.7774 89.1901 29.553 89.6954C27.2684 88.9565 24.9014 88.4434 22.4936 88.1653L22.109 88.122C20.2423 87.9197 18.3545 87.9342 16.4919 88.1653C13.7043 88.4582 11.0221 89.2992 8.63506 90.6287C6.24798 91.9582 4.21427 93.7437 2.67768 95.8591C-1.14448 101.279 -1.09641 109.031 4.26424 113.636C9.78514 118.378 18.1426 118.341 24.6411 115.375C28.0849 113.697 30.9886 111.246 33.0707 108.259C33.8683 107.176 34.6012 106.056 35.2662 104.903C35.4345 105.004 35.6027 105.105 35.771 105.213C36.412 105.617 37.0531 106.028 37.6861 106.433C41.3745 108.839 45.2613 110.989 49.3129 112.863C58.0245 116.764 67.402 119.319 77.0536 120.42C77.2699 120.442 77.4783 120.471 77.6946 120.492C78.7603 120.615 79.8341 120.709 80.9078 120.788C96.3103 121.834 111.732 118.995 125.444 112.589C126.605 112.048 127.757 111.48 128.897 110.886C130.668 109.962 132.399 108.98 134.09 107.941C135.011 107.378 135.908 106.808 136.798 106.209C140.685 103.63 144.308 100.744 147.623 97.584C148.881 96.3932 150.086 95.1638 151.237 93.8959C152.326 92.8587 152.953 91.4973 153 90.0706C152.994 89.4191 152.858 88.7738 152.599 88.1653ZM19.9135 105.357C20.0817 105.249 20.25 105.134 20.4103 105.018C20.3622 105.126 20.1298 105.249 19.9135 105.357ZM22.4856 103.026C22.3013 103.214 22.133 103.401 21.9487 103.589C21.3881 104.154 20.7857 104.685 20.1458 105.177C20.0577 105.249 19.9616 105.321 19.8654 105.386C19.8643 105.386 19.8633 105.386 19.8623 105.387C19.8613 105.387 19.8604 105.387 19.8597 105.388C19.8589 105.389 19.8583 105.39 19.8579 105.391C19.8575 105.391 19.8574 105.392 19.8574 105.393C19.7416 105.44 19.6292 105.493 19.5208 105.552C19.1762 105.74 18.8237 105.913 18.4631 106.072C17.7571 106.306 17.0308 106.487 16.2916 106.613C15.7236 106.65 15.1536 106.655 14.5849 106.628H14.5688C14.1764 106.549 13.7886 106.453 13.407 106.339C13.2147 106.252 13.0304 106.151 12.8461 106.05C12.774 105.992 12.7098 105.935 12.6698 105.899C12.5915 105.834 12.5192 105.764 12.4535 105.689C12.4535 105.688 12.4533 105.687 12.4529 105.686C12.4525 105.686 12.4519 105.685 12.4512 105.684C12.4505 105.683 12.4495 105.683 12.4486 105.683C12.4476 105.682 12.4465 105.682 12.4455 105.682C12.3573 105.538 12.2611 105.393 12.173 105.249C12.1685 105.245 12.1656 105.24 12.165 105.235C12.1009 105.054 12.0448 104.866 11.9968 104.679C11.9794 104.349 11.982 104.019 12.0048 103.69C12.1123 103.229 12.2569 102.775 12.4375 102.333C12.5997 102.02 12.7844 101.716 12.9904 101.424C13.0064 101.395 13.0865 101.279 13.1747 101.149C13.1827 101.142 13.1827 101.142 13.1827 101.135C13.3028 101.012 13.4231 100.882 13.5513 100.767C13.7676 100.55 14 100.363 14.2324 100.168C14.6843 99.9015 15.1524 99.6581 15.6346 99.4389C16.3996 99.1942 17.1845 99.0036 17.9824 98.8688C19.1589 98.7846 20.3415 98.7942 21.5161 98.8976C22.6287 99.0715 23.7264 99.3151 24.8014 99.6266C24.1499 100.765 23.4081 101.861 22.5818 102.903C22.5497 102.947 22.5177 102.99 22.4856 103.026ZM13.5753 100.651C13.5047 100.754 13.4213 100.848 13.3269 100.933C13.3904 100.827 13.4745 100.731 13.5753 100.651Z" fill="#C20909"/>
<path id="Vector_2" d="M129 14.3949C128.926 16.6535 128.852 18.9122 128.778 21.1708C128.622 26.1844 128.46 31.2004 128.293 36.2188C128.121 41.8655 127.94 47.5097 127.751 53.1515C127.66 56.0647 127.567 58.978 127.471 61.8912C127.216 69.7389 126.964 77.5842 126.715 85.4271C126.69 86.2399 126.658 87.0455 126.633 87.8584C126.51 91.7499 126.386 95.6414 126.263 99.5328C126.123 103.755 125.986 107.978 125.852 112.2C125.753 115.365 125.652 118.532 125.548 121.702C124.808 144.67 124.069 167.637 123.329 190.605C123.298 192.027 122.638 193.384 121.489 194.39C120.339 195.395 118.79 195.973 117.164 196C115.534 195.989 113.973 195.416 112.82 194.407C111.667 193.398 111.013 192.032 111 190.605C111.411 177.686 111.827 164.767 112.249 151.849C112.619 140.167 112.995 128.485 113.375 116.804C113.499 112.955 113.622 109.104 113.745 105.251C113.934 99.4537 114.121 93.656 114.304 87.8584C114.329 87.0455 114.362 86.2399 114.386 85.4271C114.403 84.715 114.427 84.0101 114.452 83.2979C114.814 72.0407 115.175 60.781 115.537 49.519C115.685 45.088 115.827 40.6546 115.964 36.2188C116.129 31.1621 116.293 26.1077 116.458 21.0557C116.531 18.833 116.597 16.6175 116.671 14.3949C116.702 12.9726 117.362 11.6162 118.511 10.6104C119.661 9.60451 121.21 9.02734 122.836 9C124.466 9.0115 126.027 9.58359 127.18 10.5928C128.333 11.6021 128.987 12.9676 129 14.3949Z" fill="#C20909"/>
<path id="Vector_3" d="M154 87.0188C153.995 89.0718 153.101 91.0444 151.505 92.5283C149.909 94.0123 147.732 94.894 145.425 94.9911C143.118 95.0881 140.858 94.393 139.111 93.0497C137.364 91.7063 136.266 89.8175 136.042 87.7741C135.819 85.7308 136.488 83.6892 137.91 82.072C139.333 80.4547 141.401 79.3856 143.686 79.0858C145.971 78.786 148.298 79.2785 150.186 80.4613C152.073 81.6442 153.377 83.4269 153.827 85.4406C153.943 85.9603 154.001 86.489 154 87.0188Z" fill="#C20909"/>
<path id="Vector_4" d="M549.599 91.1653C549.322 90.4345 548.855 89.7739 548.237 89.2382C548.009 89.0477 547.762 88.8762 547.5 88.7258C545.409 87.4699 542.284 87.1884 540.296 88.7258C540.096 88.8821 539.911 89.0535 539.743 89.2382C539.15 89.895 538.542 90.5373 537.917 91.1653C536.891 92.219 535.841 93.2367 534.743 94.2255C534.431 94.4997 534.118 94.7812 533.798 95.0555C533.614 95.2215 533.429 95.3803 533.245 95.539C532.54 96.1453 531.819 96.7299 531.09 97.3073C530.705 97.6177 530.32 97.9208 529.928 98.2167C529.343 98.657 528.758 99.0973 528.165 99.5231C528.109 99.5592 528.053 99.5952 527.997 99.6386C527.981 99.6458 527.972 99.6602 527.956 99.6675C527.948 99.6675 527.94 99.6674 527.932 99.6819C527.911 99.6896 527.891 99.702 527.876 99.718C527.7 99.8262 527.58 99.8984 527.492 99.9633C527.524 99.9489 527.556 99.9273 527.588 99.9128C527.444 100.014 527.291 100.115 527.147 100.216C525.745 101.147 524.311 102.042 522.844 102.879C519.216 104.971 515.406 106.793 511.45 108.328C511.185 108.422 510.913 108.523 510.641 108.617C500.284 112.439 489.049 113.93 477.908 112.962C476.77 112.883 475.632 112.774 474.494 112.637C473.18 112.464 471.874 112.255 470.576 112.017C465.634 111.128 460.799 109.814 456.137 108.09C450.305 105.685 444.759 102.754 439.582 99.3427C438.781 98.8302 437.971 98.3178 437.162 97.8198C438.084 95.7845 438.989 93.7491 439.87 91.6993C440.311 90.7106 440.736 89.7218 441.153 88.7258C444.43 81.0536 447.507 73.3093 450.456 65.5361C453.436 57.6618 456.249 49.7419 458.893 41.7762C459.166 40.9679 459.43 40.1595 459.686 39.3512C461.073 35.1434 462.403 30.926 463.677 26.6989C463.797 26.2876 463.925 25.8834 464.037 25.472C464.406 24.2594 464.767 23.0469 465.119 21.8344C465.92 19.0989 464.11 15.8295 460.92 15.1727C459.385 14.8181 457.757 15.0141 456.378 15.7196C455 16.4251 453.98 17.5849 453.532 18.9546C453.188 20.1238 452.843 21.2859 452.491 22.4551C450.8 28.1063 449.021 33.7383 447.154 39.3512C446.882 40.1595 446.609 40.9679 446.337 41.7762C442.218 54.0026 437.696 66.1063 432.771 78.0872C432.178 79.5379 431.577 80.9838 430.968 82.4249C430.672 83.1322 430.375 83.8396 430.071 84.5469C429.486 85.9398 428.885 87.3328 428.284 88.7258C427.939 89.5413 427.587 90.3569 427.234 91.1653C427.002 91.6777 426.777 92.1901 426.553 92.6954C424.268 91.9565 421.901 91.4434 419.494 91.1653L419.109 91.122C417.242 90.9197 415.355 90.9342 413.492 91.1653C410.704 91.4582 408.022 92.2992 405.635 93.6287C403.248 94.9582 401.214 96.7437 399.678 98.8591C395.856 104.279 395.904 112.031 401.264 116.636C406.785 121.378 415.143 121.341 421.641 118.375C425.085 116.697 427.989 114.246 430.071 111.259C430.868 110.176 431.601 109.056 432.266 107.903C432.434 108.004 432.603 108.105 432.771 108.213C433.412 108.617 434.053 109.028 434.686 109.433C438.374 111.839 442.261 113.989 446.313 115.863C455.024 119.764 464.402 122.319 474.054 123.42C474.27 123.442 474.478 123.471 474.695 123.492C475.76 123.615 476.834 123.709 477.908 123.788C493.31 124.834 508.732 121.995 522.444 115.589C523.605 115.048 524.757 114.48 525.897 113.886C527.668 112.962 529.399 111.98 531.09 110.941C532.011 110.378 532.908 109.808 533.798 109.209C537.685 106.63 541.308 103.744 544.623 100.584C545.881 99.3932 547.086 98.1638 548.237 96.8959C549.326 95.8587 549.953 94.4973 550 93.0706C549.994 92.4191 549.858 91.7738 549.599 91.1653ZM416.913 108.357C417.082 108.249 417.25 108.134 417.41 108.018C417.362 108.126 417.13 108.249 416.913 108.357ZM419.486 106.026C419.301 106.214 419.133 106.401 418.949 106.589C418.388 107.154 417.786 107.685 417.146 108.177C417.058 108.249 416.962 108.321 416.865 108.386C416.864 108.386 416.863 108.386 416.862 108.387C416.861 108.387 416.86 108.387 416.86 108.388C416.859 108.389 416.858 108.39 416.858 108.391C416.858 108.391 416.857 108.392 416.857 108.393C416.742 108.44 416.629 108.493 416.521 108.552C416.176 108.74 415.824 108.913 415.463 109.072C414.757 109.306 414.031 109.487 413.292 109.613C412.724 109.65 412.154 109.655 411.585 109.628H411.569C411.176 109.549 410.789 109.453 410.407 109.339C410.215 109.252 410.03 109.151 409.846 109.05C409.774 108.992 409.71 108.935 409.67 108.899C409.592 108.834 409.519 108.764 409.453 108.689C409.454 108.688 409.453 108.687 409.453 108.686C409.453 108.686 409.452 108.685 409.451 108.684C409.45 108.683 409.45 108.683 409.449 108.683C409.448 108.682 409.447 108.682 409.445 108.682C409.357 108.538 409.261 108.393 409.173 108.249C409.168 108.245 409.166 108.24 409.165 108.235C409.101 108.054 409.045 107.866 408.997 107.679C408.979 107.349 408.982 107.019 409.005 106.69C409.112 106.229 409.257 105.775 409.437 105.333C409.6 105.02 409.784 104.716 409.99 104.424C410.006 104.395 410.087 104.279 410.175 104.149C410.183 104.142 410.183 104.142 410.183 104.135C410.303 104.012 410.423 103.882 410.551 103.767C410.768 103.55 411 103.363 411.232 103.168C411.684 102.901 412.152 102.658 412.635 102.439C413.4 102.194 414.185 102.004 414.982 101.869C416.159 101.785 417.341 101.794 418.516 101.898C419.629 102.072 420.726 102.315 421.801 102.627C421.15 103.765 420.408 104.861 419.582 105.903C419.55 105.947 419.518 105.99 419.486 106.026ZM410.575 103.651C410.505 103.754 410.421 103.848 410.327 103.933C410.39 103.827 410.475 103.731 410.575 103.651Z" fill="#C20909"/>
<path id="Vector_5" d="M526 17.3949C525.926 19.6535 525.852 21.9122 525.778 24.1708C525.622 29.1844 525.46 34.2004 525.293 39.2188C525.121 44.8655 524.94 50.5097 524.751 56.1515C524.66 59.0647 524.567 61.978 524.471 64.8912C524.216 72.7389 523.964 80.5842 523.715 88.4271C523.69 89.2399 523.658 90.0455 523.633 90.8584C523.51 94.7499 523.386 98.6414 523.263 102.533C523.123 106.755 522.986 110.978 522.852 115.2C522.753 118.365 522.652 121.532 522.548 124.702C521.808 147.67 521.069 170.637 520.329 193.605C520.298 195.027 519.638 196.384 518.489 197.39C517.339 198.395 515.79 198.973 514.164 199C512.534 198.989 510.973 198.416 509.82 197.407C508.667 196.398 508.013 195.032 508 193.605C508.411 180.686 508.827 167.767 509.249 154.849C509.619 143.167 509.995 131.485 510.375 119.804C510.499 115.955 510.622 112.104 510.745 108.251C510.934 102.454 511.121 96.656 511.304 90.8584C511.329 90.0455 511.362 89.2399 511.386 88.4271C511.403 87.715 511.427 87.0101 511.452 86.2979C511.814 75.0407 512.175 63.781 512.537 52.519C512.685 48.088 512.827 43.6546 512.964 39.2188C513.129 34.1621 513.293 29.1077 513.458 24.0557C513.531 21.833 513.597 19.6175 513.671 17.3949C513.702 15.9726 514.362 14.6162 515.511 13.6104C516.661 12.6045 518.21 12.0273 519.836 12C521.466 12.0115 523.027 12.5836 524.18 13.5928C525.333 14.6021 525.987 15.9676 526 17.3949Z" fill="#C20909"/>
<path id="Vector_6" d="M551 90.0188C550.995 92.0718 550.101 94.0444 548.505 95.5283C546.909 97.0123 544.732 97.894 542.425 97.9911C540.118 98.0881 537.858 97.393 536.111 96.0497C534.364 94.7063 533.266 92.8175 533.042 90.7741C532.819 88.7308 533.488 86.6892 534.91 85.072C536.333 83.4547 538.401 82.3856 540.686 82.0858C542.971 81.786 545.298 82.2785 547.186 83.4613C549.073 84.6442 550.377 86.4269 550.827 88.4406C550.943 88.9603 551.001 89.489 551 90.0188Z" fill="#C20909"/>
<path id="Vector_7" d="M360.659 51.8413C353.76 37.351 343.07 25.159 330.498 16.1995C317.885 7.25241 303.412 1.80374 288.369 0.339073C286.397 0.146152 284.42 0.033153 282.439 9.72814e-05C280.097 -0.0376211 244.876 10.9003 233.077 19.8319C221.285 28.6546 211.584 40.3385 204.758 53.9406C197.944 67.6173 194.592 82.9836 195.04 98.4963C195.624 114.102 199.664 129.332 206.824 142.916C213.886 156.456 223.913 167.933 236.033 176.351C248.327 184.796 260.675 207.188 275.19 207.978C289.814 208.775 306.491 187.652 319.829 181.239C333.167 174.772 344.697 164.655 353.272 151.895C361.604 139.391 366.994 124.897 368.98 109.657C371.043 94.0524 370.082 77.9593 365.132 63.0449C363.862 59.2127 362.368 55.4706 360.659 51.8413C359.233 48.8166 355.052 47.7028 352.435 49.5195C351.087 50.4135 350.11 51.8325 349.709 53.4816C349.307 55.1308 349.511 56.8831 350.279 58.3743C351.116 60.1507 351.895 61.9563 352.615 63.7914L352.009 62.2454C354.734 69.2998 356.587 76.709 357.521 84.2829L357.306 82.5623C358.299 90.7793 358.281 99.1013 357.253 107.313L357.468 105.593C356.429 113.804 354.393 121.833 351.413 129.473L352.019 127.927C350.486 131.826 348.699 135.603 346.671 139.23C345.644 141.063 344.554 142.852 343.401 144.599C342.895 145.365 342.373 146.119 341.847 146.869C341.16 147.849 342.782 145.59 342.073 146.551C341.952 146.714 341.832 146.879 341.711 147.042C341.347 147.532 340.978 148.017 340.603 148.498C338.104 151.708 335.377 154.704 332.447 157.458C331.717 158.144 330.975 158.815 330.221 159.47C329.845 159.797 329.474 160.137 329.082 160.441C329.097 160.429 330.348 159.406 329.607 160C329.374 160.186 329.144 160.376 328.91 160.562C327.355 161.802 325.759 162.979 324.122 164.093C320.352 166.65 316.397 168.876 312.295 170.749L313.731 170.097C306.656 173.304 299.219 175.495 291.613 176.613L293.211 176.382C285.608 177.488 277.903 177.503 270.297 176.426L271.895 176.657C264.982 175.657 258.22 173.689 251.781 170.802L253.217 171.455C249.488 169.759 245.892 167.742 242.464 165.422C240.768 164.271 239.116 163.05 237.508 161.757C237.279 161.572 237.051 161.385 236.823 161.2C236.089 160.604 237.35 161.64 237.36 161.647C236.934 161.317 236.523 160.965 236.13 160.59C235.353 159.909 234.589 159.212 233.836 158.5C230.826 155.646 228.015 152.557 225.426 149.259C224.778 148.434 224.144 147.597 223.523 146.747C223.255 146.379 222.765 145.634 223.847 147.203C223.705 146.997 223.557 146.794 223.413 146.589C223.068 146.095 222.727 145.598 222.391 145.098C221.214 143.344 220.095 141.548 219.034 139.708C216.638 135.544 214.546 131.185 212.778 126.671L213.384 128.217C210.492 120.807 208.514 113.022 207.501 105.058L207.716 106.779C206.802 99.4388 206.789 92.0011 207.677 84.6572L207.462 86.3777C208.373 79.266 210.15 72.3145 212.748 65.7028L212.142 67.2488C213.776 63.1098 215.704 59.1124 217.909 55.292C219.012 53.3801 220.182 51.5149 221.417 49.6962C221.698 49.2829 221.982 48.8722 222.269 48.4641C222.529 48.0948 223.243 47.1754 222.024 48.7992C222.144 48.64 222.259 48.4762 222.376 48.3156C223.054 47.3908 223.749 46.4805 224.46 45.5846C227.151 42.1926 230.066 39.0143 233.183 36.0744C233.97 35.3313 234.77 34.6039 235.583 33.8921C235.952 33.5687 236.324 33.2485 236.698 32.9318C236.847 32.8051 236.999 32.6809 237.148 32.5533C235.547 33.9249 236.703 32.9266 237.067 32.6334C238.741 31.2825 240.46 29.9992 242.224 28.7836C246.146 26.0836 250.271 23.7432 254.557 21.7871L253.121 22.4396C259.34 19.6279 286.896 12.9913 291.908 13.7157L290.31 13.4845C297.676 14.5917 304.876 16.7334 311.726 19.8549L310.29 19.2025C313.761 20.7893 317.134 22.6135 320.389 24.6641C322.015 25.6904 323.609 26.7727 325.172 27.9109C325.911 28.4497 326.642 29.0005 327.366 29.5633C327.728 29.8447 328.088 30.1292 328.445 30.4166C328.644 30.5763 328.841 30.7381 329.039 30.8982C329.872 31.5704 327.892 29.9247 328.765 30.6681C331.688 33.14 334.463 35.8068 337.075 38.6529C338.358 40.0595 339.597 41.5107 340.791 43.0065C341.404 43.7741 342.004 44.5528 342.592 45.3429C342.884 45.7355 343.878 47.1559 342.66 45.4159C342.957 45.8412 343.259 46.2636 343.553 46.692C346.085 50.3831 348.335 54.2902 350.279 58.3743C351.716 61.3926 355.878 62.518 358.503 60.6962C359.852 59.8027 360.829 58.3836 361.23 56.7343C361.632 55.085 361.428 53.3324 360.659 51.8413Z" fill="#C20909"/>
</g>
</svg>
