<svg width="260" height="462" viewBox="0 0 260 462" fill="none" xmlns="http://www.w3.org/2000/svg">
<g id="lost">
<g id="port">
<path id="Vector" opacity="0.5" d="M2.32439 461.805C-3.24682 459.201 1.4662 430.914 13.5794 387.306C21.3172 359.328 32.136 325.044 45.234 287.204C46.1766 284.49 47.1333 281.768 48.0899 279.016C49.1685 275.933 50.2612 272.825 51.3679 269.693L51.4664 269.435C51.6212 268.985 51.783 268.542 51.9377 268.1C56.1302 256.298 60.5126 244.223 65.085 231.875C65.1694 231.625 65.2608 231.381 65.3523 231.138L65.5844 230.511C66.6818 227.56 67.7932 224.61 68.9116 221.608C69.0312 221.298 69.1438 220.973 69.2634 220.664C69.4252 220.228 69.587 219.808 69.7417 219.38C69.798 219.247 69.8402 219.107 69.8965 218.989C69.9879 218.731 70.0864 218.48 70.1778 218.252C71.3033 215.301 72.4218 212.314 73.5403 209.4C75.3692 204.63 77.1841 199.907 78.9849 195.231C79.2991 194.409 79.6156 193.598 79.9345 192.797C80.8396 190.441 81.747 188.103 82.6568 185.782C83.0085 184.897 83.3602 184.004 83.6979 183.126C83.9652 182.455 84.2255 181.777 84.4857 181.113C87.3417 173.869 90.1789 166.766 92.9973 159.803C93.0044 159.779 93.0044 159.753 92.9973 159.729C103.725 133.227 114.1 108.893 123.737 87.6199C123.794 87.5092 123.836 87.3912 123.892 87.2806L124.912 85.0235C149.645 30.6538 169.102 -2.90038 175.679 0.197603C182.446 3.3546 174.019 44.5578 155.554 105.131C155.315 105.935 155.068 106.724 154.815 107.528C154.777 107.686 154.73 107.841 154.675 107.993C153.737 111.13 152.75 114.326 151.713 117.582C151.657 117.774 151.594 117.965 151.53 118.157C149.185 125.681 146.691 133.45 144.046 141.466C143.687 142.543 143.342 143.642 142.962 144.733C138.882 157.118 134.521 170.012 129.843 183.303C129.562 184.122 129.273 184.934 128.985 185.76C124.307 199.074 119.376 212.779 114.213 226.764C113.882 227.649 113.552 228.541 113.228 229.434C113.158 229.626 113.087 229.81 113.01 230.002C111.72 233.469 110.424 236.95 109.12 240.447C108.747 241.42 108.417 242.394 108.023 243.36C107.094 245.831 106.166 248.302 105.209 250.736C105.132 250.958 105.047 251.179 104.963 251.393C104.878 251.607 104.829 251.739 104.759 251.909C104.604 252.337 104.442 252.757 104.28 253.178C103.844 254.321 103.415 255.464 102.979 256.593C102.226 258.57 101.474 260.524 100.721 262.494L100.489 263.084C100.491 263.111 100.491 263.138 100.489 263.165C97.4313 271.087 94.3831 278.874 91.3442 286.525C90.3219 289.107 89.3019 291.671 88.2843 294.219C87.5316 296.1 86.786 297.973 86.0333 299.825C80.448 313.67 74.9612 326.925 69.6151 339.486C37.2852 415.335 10.3014 465.537 2.32439 461.805Z" fill="#73E3EA"/>
<path id="Vector_2" opacity="0.5" d="M16.1629 408.904C12.7661 407.356 16.9843 387.253 26.5482 356.022C32.6736 335.993 41.0054 311.38 50.9104 284.158L53.0752 278.263C53.8873 276.047 54.7133 273.812 55.5532 271.557C55.5794 271.494 55.6026 271.43 55.6228 271.365L55.9847 270.407C59.1449 261.893 62.4419 253.198 65.8758 244.32C65.9384 244.136 66.0081 243.967 66.0777 243.79C66.1473 243.613 66.189 243.488 66.2517 243.34C67.073 241.203 67.9014 239.073 68.7366 236.922L69.0081 236.236L69.3631 235.315C69.4049 235.219 69.4397 235.116 69.4745 235.028C69.5093 234.939 69.6206 234.667 69.6902 234.49C70.5348 232.338 71.3724 230.203 72.203 228.086C73.5673 224.647 74.92 221.24 76.2611 217.865L76.9571 216.111C77.6532 214.409 78.3075 212.729 78.9827 211.048L79.7553 209.132C79.9572 208.646 80.1451 208.16 80.34 207.659C82.4607 202.436 84.5651 197.307 86.6533 192.272C86.6574 192.255 86.6574 192.237 86.6533 192.22C94.5884 173.06 102.217 155.477 109.22 140.068C109.261 139.987 109.296 139.899 109.338 139.818L110.076 138.182C128.076 98.7787 141.83 74.2614 145.84 76.0963C149.967 77.9828 142.826 107.334 128.508 150.783L127.937 152.507C127.902 152.618 127.867 152.729 127.825 152.839C127.083 155.089 126.32 157.376 125.535 159.7L125.396 160.112C123.573 165.517 121.654 171.095 119.64 176.848C119.368 177.629 119.097 178.418 118.811 179.199C115.693 188.093 112.359 197.371 108.837 206.936L108.19 208.698C104.654 218.278 100.941 228.118 97.0525 238.219C96.8089 238.86 96.5653 239.501 96.3147 240.142C96.259 240.282 96.2033 240.415 96.1546 240.555L93.2381 248.079L92.4167 250.179C91.7207 251.962 91.0246 253.745 90.3285 255.507C90.2728 255.669 90.2102 255.824 90.1475 255.978C90.0849 256.133 90.0501 256.229 89.9944 256.354L89.6394 257.261C89.3123 258.086 88.9921 258.911 88.6649 259.729L87.0292 264.018L86.8552 264.446V264.504C84.5721 270.223 82.3076 275.841 80.0616 281.358C79.3052 283.225 78.5465 285.077 77.7855 286.914C77.2286 288.28 76.6718 289.631 76.1149 290.967C71.9803 300.96 67.9362 310.547 64.0104 319.626C40.2398 374.556 21.0284 411.129 16.1629 408.904Z" fill="#38544F"/>
</g>
<g id="lostUser">
<path id="Vector_3" d="M246.068 258.151C246.068 256.095 244.155 257.156 243.889 257.245C243.121 256.581 242.284 256.01 241.394 255.543C237.127 253.207 230.68 251.785 225.544 250.953C225.526 250.946 225.506 250.946 225.488 250.953C220.961 250.216 217.471 249.965 217.471 249.965L214.802 250.002H213.807C214.156 249.456 214.669 249.049 215.264 248.846C216.007 248.75 212.125 248.448 210.282 248.315H210.205L209.35 248.256C205.3 249.258 197.711 243.784 197.711 243.784L196.828 239.113C199.827 235.702 199.393 227.178 199.393 227.178C199.393 227.178 199.645 224.319 202.196 220.385C204.746 216.451 201.768 213.96 201.768 213.96L206.176 209.017C205.986 208.164 205.959 207.28 206.096 206.417C206.234 205.553 206.532 204.726 206.975 203.985C207.244 203.566 207.578 203.197 207.963 202.894V202.857L208.033 202.791C210.913 200.47 213.344 192.41 213.344 192.41C213.344 192.41 212.784 190.974 215.937 187.076V187.032C216.357 186.516 216.848 185.964 217.415 185.345C217.415 185.293 217.5 185.249 217.542 185.197C222.601 179.863 220.611 176.916 220.611 176.916L214.465 169.063C215.916 166.513 204.27 148.22 204.27 148.22C204.27 148.22 202.784 144.455 203.625 140.852C203.861 140.004 203.885 139.105 203.695 138.244C203.584 137.758 203.358 137.309 203.036 136.94C202.839 136.718 202.6 136.54 202.336 136.417L201.915 136.38L202.413 135.997C202.616 135.857 202.812 135.702 203.015 135.555C203.45 135.732 203.884 135.887 204.326 136.027C208.603 137.479 213.159 137.778 217.574 136.895C221.99 136.011 226.123 133.975 229.594 130.972C229.769 130.832 229.937 130.678 230.099 130.523C230.26 130.368 230.54 130.125 230.757 129.912C230.855 129.816 230.954 129.727 231.038 129.632C231.122 129.536 231.367 129.293 231.528 129.116C231.577 129.278 231.626 129.433 231.682 129.595C231.902 130.248 232.167 130.883 232.474 131.496C232.5 131.552 232.531 131.606 232.565 131.658C232.563 131.68 232.563 131.702 232.565 131.724C232.614 131.834 232.677 131.938 232.733 132.041C233.133 132.743 233.618 133.387 234.177 133.956C234.314 134.098 234.459 134.231 234.611 134.354C234.83 134.55 235.064 134.725 235.312 134.877C235.349 134.911 235.389 134.941 235.431 134.966C235.473 134.999 235.517 135.029 235.564 135.054C235.746 134.715 235.922 134.369 236.09 134.023C237.578 130.97 238.444 127.626 238.634 124.202C238.642 123.785 238.675 123.369 238.732 122.957C238.77 122.641 238.857 122.335 238.991 122.05C239.25 121.49 239.669 121.029 240.189 120.732C241.03 120.282 241.913 119.926 242.824 119.671L243.041 119.59L243.307 119.494L243.826 119.28L243.91 119.236C244.064 119.17 244.204 119.089 244.351 119.015C244.396 118.981 244.442 118.952 244.492 118.927C244.659 118.828 244.819 118.715 244.968 118.588L245.038 118.529C245.174 118.42 245.301 118.299 245.417 118.168C245.473 118.109 245.508 118.035 245.564 117.976C245.641 117.887 245.712 117.791 245.774 117.689L245.942 117.431C245.978 117.349 246.021 117.27 246.068 117.195C246.604 116.053 246.846 114.783 246.769 113.511C246.671 111.684 246.159 109.916 246.18 108.082C246.243 103.698 249.25 99.5131 248.983 95.1589C248.745 91.3867 246.103 88.4544 243.377 86.1116C240.652 83.7687 237.624 81.5805 236.132 78.2283C235.018 75.716 234.864 72.7911 233.862 70.2272C231.759 64.8562 225.593 61.8282 220.022 63.4269C216.687 64.3921 213.786 66.7128 210.541 68.0022C208.397 68.8494 206.148 69.2325 204.01 70.0945C201.486 71.1201 199.224 72.7496 197.403 74.854C197.08 75.2223 196.779 75.5907 196.485 76.0033L196.211 76.3938C196.008 76.6885 195.805 76.9832 195.623 77.2926C195.539 77.4252 195.462 77.5505 195.384 77.6905C195.129 78.1169 194.895 78.5571 194.684 79.0093C194.481 79.4292 194.305 79.8565 194.13 80.2912C193.156 82.7667 192.554 85.4043 191.383 87.7619C191.124 88.2988 190.829 88.8157 190.5 89.3091C190.045 89.9942 189.519 90.6352 189.001 91.2836C188.861 91.4604 188.721 91.6372 188.58 91.7993C188.523 91.8853 188.46 91.9666 188.391 92.0424C188.293 92.1824 188.181 92.315 188.076 92.455C187.971 92.595 187.95 92.6244 187.894 92.7055C187.838 92.7865 187.683 93.0076 187.592 93.1623C187.501 93.317 187.487 93.3023 187.438 93.3833C187.298 93.6117 187.172 93.8475 187.046 94.0832V94.1348C186.653 94.9281 186.438 95.8048 186.415 96.6987C186.407 97.141 186.468 97.5817 186.597 98.0027C186.631 98.1108 186.671 98.2166 186.716 98.3196C186.822 98.5566 186.961 98.7752 187.13 98.9679C187.046 99.211 186.948 99.4615 186.871 99.7046C186.688 100.265 186.52 100.839 186.366 101.407C186.268 101.797 186.191 102.143 186.107 102.549C185.78 104.041 185.572 105.559 185.483 107.087L185.035 107.33C184.246 107.742 183.434 108.104 182.603 108.413H182.519C181.818 108.575 176.983 109.636 175.288 109.327L169.24 108.214C169.24 108.214 167.839 107.603 166.304 106.829C165.146 106.297 164.066 105.595 163.095 104.744C161.939 103.433 153.943 98.0248 152.262 98.0322C151.575 97.9194 150.949 97.5539 150.496 97.0008C149.988 96.3474 149.52 95.6609 149.094 94.9452C149.094 94.9452 148.933 94.8568 148.681 94.6947C148.366 94.2306 148.169 93.8843 148.169 93.8843C148.169 93.8843 145.794 92.5139 143.376 90.9373L142.346 93.1475C142.29 93.2581 142.241 93.3759 142.185 93.4938C132.431 114.639 121.766 138.782 110.652 165.003C110.656 165.027 110.656 165.052 110.652 165.077C107.723 171.953 104.768 178.979 101.788 186.155L100.968 188.144L99.875 190.767L97.023 197.693L96.028 200.102C94.136 204.714 92.2301 209.38 90.3101 214.1C89.1328 216.993 87.9509 219.913 86.7644 222.86C86.6733 223.103 86.5682 223.354 86.4701 223.597C86.414 223.722 86.3649 223.855 86.3089 223.988C86.1477 224.407 85.9725 224.827 85.8043 225.255C85.6782 225.557 85.5521 225.881 85.426 226.183C84.2487 229.13 83.0785 232.077 81.9223 234.965L81.3898 235.252L81.6771 235.584C81.579 235.827 81.4809 236.063 81.3898 236.321C76.5547 248.462 71.8832 260.361 67.3752 272.016L66.8706 273.328L66.7655 273.586C65.579 276.665 64.4111 279.723 63.2619 282.758C62.2341 285.47 61.2134 288.156 60.1997 290.818C46.108 328.039 34.1886 361.642 25.3244 388.961C24.9039 389.263 24.4555 389.61 24 390C24.4555 389.639 24.8969 389.263 25.3034 389.005C25.654 388.754 26.0191 388.525 26.3965 388.32C27.2214 387.859 27.9789 387.276 28.6458 386.589C28.9471 386.294 29.2415 385.992 29.5288 385.675C31.1725 383.739 32.663 381.664 33.9854 379.472C34.1987 379.206 34.4331 378.959 34.6861 378.735L35.0575 378.381L35.1136 378.33C35.3168 378.146 35.534 377.939 35.7793 377.726L35.8213 377.689L36.1857 377.372L36.2277 377.335L36.6201 376.989C37.8184 375.958 39.2829 374.742 40.6774 373.593L41.1819 373.187L42.8847 371.802L43.7255 371.132L45.5825 369.658C45.5995 369.628 45.6182 369.598 45.6385 369.57C45.8067 369.341 46.1921 368.833 46.7317 368.133C46.7418 368.117 46.7564 368.104 46.7737 368.096C46.8372 368.004 46.905 367.916 46.9769 367.831C47.7197 366.918 48.6867 365.776 49.7799 364.641C49.913 364.508 50.0461 364.361 50.1933 364.228L50.5927 363.823L51.2444 363.212C51.8852 362.613 52.5591 362.055 53.2625 361.539C54.1626 360.856 55.0236 360.118 55.8412 359.329L56.0163 359.167C56.1355 359.042 56.2686 358.909 56.4087 358.784C56.5096 358.694 56.6055 358.598 56.6961 358.496L56.9974 358.202L57.4949 357.708L57.8102 357.391L58.553 356.655L59.3869 355.785L59.513 355.653C59.9404 355.196 60.3749 354.732 60.8163 354.275L61.3279 353.73C61.5381 353.501 61.7483 353.266 61.9585 353.045C62.3159 352.669 62.6593 352.308 63.0236 351.903L63.8014 351.048C64.0537 350.761 64.306 350.495 64.5442 350.23C64.9296 349.81 65.294 349.412 65.6373 349.022L65.7144 348.933L66.6044 347.946C66.6044 347.946 66.6044 347.946 66.6464 347.895C66.8636 347.666 67.0528 347.453 67.235 347.239L67.4102 347.04C67.5854 346.863 67.7395 346.679 67.8727 346.532C68.3982 345.95 68.6996 345.603 68.6996 345.603L75.0061 338.052L81.4318 330.161L81.7191 329.822C81.7191 329.822 83.3588 327.229 85.0336 325.085L85.2578 324.797C85.8295 324.043 86.4702 323.35 87.1708 322.727C87.7352 322.229 88.2537 321.677 88.7194 321.077C88.7544 321.077 88.7825 320.996 88.8245 320.952C90.7165 318.623 93.162 315.006 93.9468 313.82L94.2061 313.437C94.8579 312.867 95.4584 312.236 96 311.551C96.6579 310.749 97.188 309.841 97.5696 308.861C97.9392 307.982 98.4099 307.153 98.9711 306.393C98.974 306.381 98.974 306.369 98.9711 306.356L99.0832 306.194L99.4826 305.649C99.9776 305.75 100.479 305.814 100.982 305.841C103.285 305.933 105.586 305.624 107.793 304.927C107.858 304.909 107.921 304.887 107.982 304.861C108.557 304.721 108.992 304.588 109.223 304.515L109.426 304.448L113.777 297.744L113.883 297.589C113.883 297.589 116.181 295.298 118.381 292.844C118.62 292.579 118.851 292.314 119.082 292.056C120.652 290.273 122.039 288.52 122.312 287.591C123.013 285.271 126.874 280.555 126.874 280.555C126.874 280.555 133.496 271.655 136.082 268.296C136.187 268.156 136.292 268.016 136.383 267.905L136.733 267.456C136.813 267.514 136.887 267.578 136.958 267.647C137.153 267.85 137.329 268.072 137.483 268.311C137.497 268.341 137.514 268.371 137.532 268.399L137.749 268.075C137.897 267.869 138.1 267.552 138.373 267.161C138.584 267.37 138.77 267.605 138.927 267.861L138.99 267.957C138.99 267.957 153.635 246.694 155.919 240.697C156.446 239.446 157.107 238.262 157.888 237.168C160.881 232.814 165.926 227.789 168.294 225.513L168.995 224.857C169.359 224.503 169.577 224.312 169.577 224.312L169.829 224.886C169.829 224.931 169.829 224.975 169.878 225.026C170.481 226.463 171.7 229.646 171.048 230.523C170.214 231.672 167.979 243.276 167.979 243.276C167.979 243.276 164.931 248.374 166.907 256.206C168.883 264.037 177.137 266.771 178.98 266.609C180.165 266.498 190.521 271.029 197.858 274.352L199.666 275.17L201.488 275.988L204.326 277.292L204.487 277.365C204.718 277.483 204.956 277.594 205.188 277.689L205.335 277.483L205.405 277.373L206.106 277.719L205.405 277.299C205.692 276.872 206.19 276.098 206.806 275.044C206.837 274.972 206.874 274.903 206.918 274.838L207.115 274.492L207.444 273.903C207.479 273.821 207.521 273.755 207.556 273.689L207.892 273.055C207.914 273.025 207.932 272.993 207.949 272.959C208.411 272.075 208.895 271.088 209.35 270.012C209.42 269.872 209.49 269.718 209.553 269.57L211.361 269.408L212.608 269.298L213.309 269.239L214.22 269.143L214.648 269.231L231.914 270.543L233.175 270.646C234.819 270.798 236.475 270.587 238.038 270.027C239.6 269.467 241.034 268.57 242.248 267.394C243.461 266.218 244.428 264.788 245.086 263.196C245.744 261.605 246.078 259.886 246.068 258.151Z" fill="url(#paint0_linear_1_433)"/>
<path id="Vector_4" d="M203.836 278C203.836 278 216.734 259.333 207.917 249L187 255.783L188.101 263.978C188.101 263.978 197.166 275.156 203.836 278Z" fill="#65617D"/>
<path id="Vector_5" opacity="0.1" d="M187 255.783L188.101 263.978C188.101 263.978 194.498 271.841 200.483 276.06C201.542 276.822 202.669 277.472 203.847 278C203.847 278 203.922 277.904 204.053 277.699C204.068 277.675 204.082 277.651 204.094 277.625C205.653 275.211 207.015 272.659 208.167 269.997C208.593 268.99 209.013 267.91 209.398 266.814C210.774 262.633 211.627 257.9 210.43 253.711C209.998 252.159 209.278 250.717 208.311 249.47C208.229 249.367 208.146 249.257 208.05 249.154C208.012 249.099 207.971 249.048 207.926 249L207.465 249.147L200.393 251.44L187 255.783Z" fill="black"/>
<path id="Vector_6" d="M98 197.917L96 200L97.1137 197L98 197.917Z" fill="#65617D"/>
<path id="Vector_7" opacity="0.1" d="M98 197.917L96 200L97.1137 197L98 197.917Z" fill="black"/>
<path id="Vector_8" d="M210.485 250.144C210.485 250.144 201.168 261.087 206.82 268.02C206.82 268.02 209.541 268.871 213.551 269.668C222.792 271.491 238.841 273.009 243.986 263.031C251.345 248.739 216.23 250.03 216.23 250.03L213.573 250.083L210.485 250.144Z" fill="#DCA6A6"/>
<path id="Vector_9" opacity="0.1" d="M210.634 251.059C210.634 251.059 201.063 261.675 206.87 268.401C206.87 268.401 209.664 269.226 213.784 270L215 269.889C213.414 269.316 211.971 268.395 210.772 267.193C209.237 265.58 208.151 263.156 209.411 259.752C210.113 257.807 210.933 255.907 211.865 254.065C212.403 252.976 213.053 251.948 213.805 251L210.634 251.059Z" fill="black"/>
<path id="Vector_10" d="M195.017 271L198.085 270.724L208.408 269.778L213.673 269.291C212.161 268.725 210.786 267.816 209.645 266.629C208.18 265.029 207.137 262.644 208.339 259.284C209.012 257.362 209.794 255.485 210.681 253.662C212.16 250.753 213.3 249.647 213.929 249.56C214.558 249.473 210.868 249.182 209.092 249.058H209.023C208.518 249.015 208.187 249 208.187 249L207.703 249.145L200.821 251.24L200.6 251.407C198.914 252.695 188.757 261.051 195.017 271Z" fill="#E7EFFD"/>
<path id="Vector_11" d="M113.752 275.487L103.08 301.404C103.08 301.404 101.227 303.469 99.5619 305.644C99.5357 305.686 99.5055 305.726 99.4717 305.762L99.0692 306.315C99.0257 306.363 98.9863 306.415 98.9512 306.47C98.9542 306.482 98.9542 306.494 98.9512 306.507C98.2358 307.418 97.6383 308.427 97.1748 309.507C96.8778 310.281 96.4833 311.008 96.0021 311.668C95.4002 312.498 94.7188 313.259 93.9689 313.939C93.937 313.974 93.9021 314.006 93.8648 314.035C93.8648 314.035 91.0892 318.26 88.8964 321.076C88.8548 321.121 88.827 321.172 88.7923 321.202C88.2333 321.944 87.6132 322.633 86.9396 323.259C86.3665 323.761 85.8392 324.319 85.3644 324.925L85.1423 325.213C83.4006 327.425 81.5756 330.293 81.5756 330.293L75.2194 337.984L68.7451 345.762L68.1275 346.5L67.6696 347.009L67.4961 347.208L66.9132 347.864C66.9132 347.864 66.8785 347.864 66.8716 347.915L65.9903 348.904L65.914 348.992C65.567 349.368 65.22 349.774 64.8315 350.201C64.5955 350.467 64.3457 350.732 64.0959 351.02L63.3256 351.875C62.9787 352.251 62.6317 352.612 62.2709 353.018C62.0627 353.239 61.8546 353.475 61.6464 353.704L61.1398 354.249C60.7027 354.706 60.2724 355.171 59.8492 355.628L59.7243 355.761L58.8985 356.631L58.1629 357.368L57.8507 357.685L57.358 358.179L57.0596 358.474C56.97 358.576 56.875 358.672 56.7751 358.762C56.6433 358.902 56.5114 359.027 56.3865 359.145L56.213 359.307C55.3835 360.145 54.5026 360.924 53.5762 361.637C52.6773 362.313 51.8219 363.052 51.0156 363.849L50.6201 364.255C50.4744 364.388 50.3425 364.535 50.2107 364.668C49.1351 365.803 48.1775 366.946 47.435 367.86C47.3638 367.945 47.2966 368.034 47.2338 368.126C47.2167 368.133 47.2021 368.146 47.1921 368.163C46.6578 368.849 46.2762 369.372 46.1096 369.601L46.0194 369.719L44.1806 371.193L43.3479 371.864L41.6616 373.25L41.162 373.656C39.7742 374.806 38.3309 376.023 37.1443 377.055L36.7557 377.402L36.714 377.439L36.3532 377.756L36.3116 377.792C36.0687 378.006 35.8536 378.213 35.6524 378.397L35.5968 378.449L35.2291 378.803C35.0093 379.007 34.8072 379.231 34.6254 379.474C33.2998 381.691 31.8002 383.785 30.1427 385.734C29.8582 386.051 29.5667 386.353 29.2683 386.648C28.6465 387.284 27.9462 387.827 27.1866 388.263C26.7758 388.48 26.3794 388.726 26 389C34.778 361.659 46.5815 328.029 60.5361 290.779C61.5354 288.11 62.5462 285.421 63.5685 282.713C64.7204 279.675 65.8769 276.615 67.0381 273.533L67.1422 273.275L67.6418 271.962C72.0828 260.312 76.7089 248.404 81.5201 236.238C81.6103 235.995 81.7074 235.759 81.8046 235.501L81.5201 235.169L82.0475 234.881C83.1994 231.932 84.3582 229.042 85.517 226.092C85.6419 225.79 85.7669 225.466 85.8918 225.163C86.0583 224.736 86.2318 224.315 86.3914 223.895C86.4469 223.762 86.4954 223.63 86.551 223.504C86.6481 223.254 86.7522 223.003 86.8424 222.767C88.0221 219.818 89.1925 216.895 90.3536 214L102.58 228.526L103.094 229.123L111.629 239.114L112.149 239.711L114.807 242.823L116.244 244.504L116.937 245.307L125.487 255.313L125.598 255.446L126 255.91L113.752 275.487Z" fill="#7A7891"/>
<path id="Vector_12" d="M175.726 112.087L174 137.609C174 137.609 194.732 147.963 195.342 144.161C195.588 142.682 198.29 140.242 201.518 137.816C206.606 133.978 213 130.154 213 130.154C213 130.154 192.149 97.029 189.672 103.951C188.766 106.481 186.668 108.248 184.366 109.468C181.638 110.823 178.721 111.707 175.726 112.087Z" fill="#DCA6A6"/>
<path id="Vector_13" opacity="0.1" d="M189.273 103.956C188.352 106.499 188.559 107.086 186.225 108.313C185.689 115.852 185.704 124.781 191.029 130.766C193.872 133.979 197.397 136.456 201.322 138C206.497 134.141 213 130.298 213 130.298C213 130.298 191.792 96.9974 189.273 103.956Z" fill="black"/>
<path id="Vector_14" d="M193.482 90.5494C190.934 93.0416 188.875 96.0398 187.423 99.373C185.971 102.706 185.154 106.309 185.02 109.975C184.885 113.642 185.435 117.301 186.639 120.743C187.842 124.185 189.675 127.342 192.033 130.036C194.391 132.729 197.228 134.905 200.382 136.439C203.536 137.974 206.945 138.837 210.414 138.979C213.883 139.121 217.345 138.54 220.602 137.268C223.858 135.996 226.846 134.059 229.394 131.567L229.665 131.288C234.774 126.216 237.767 119.208 237.987 111.804C238.207 104.401 235.634 97.208 230.836 91.8087C226.038 86.4094 219.407 83.2458 212.401 83.0137C205.396 82.7817 198.591 85.5003 193.482 90.5714V90.5494Z" fill="#DCA6A6"/>
<path id="Vector_15" opacity="0.1" d="M115.648 268.327C114.749 269.551 113.256 269.284 110.858 266.025C109.743 264.605 108.528 263.272 107.224 262.039C106.981 261.801 106.724 261.557 106.474 261.297C103.811 258.751 100.398 255.714 96.7213 252.27L96.4857 252.055C94.8507 250.518 93.1443 248.892 91.4451 247.207L90.4313 246.198C88.1038 243.859 85.7692 241.38 83.5417 238.774L83.4417 238.671C82.6207 237.72 81.8068 236.755 81 235.82C81.0928 235.575 81.1927 235.337 81.2927 235.078L81 234.744L81.5426 234.454C82.7278 231.485 83.9201 228.575 85.1124 225.606C85.2409 225.301 85.3694 224.975 85.4979 224.67C85.6693 224.24 85.8477 223.817 86.0119 223.393C86.0691 223.26 86.119 223.126 86.1762 223L87.0115 224.084C88.368 225.851 89.7531 227.625 91.1524 229.384L91.2738 229.54C92.0663 230.527 92.8516 231.515 93.6441 232.509C93.6798 232.509 93.7084 232.591 93.7441 232.621C94.6222 233.712 95.5218 234.781 96.4285 235.805L96.9569 236.392C97.9278 237.483 98.8988 238.507 99.8698 239.502C102.154 241.833 104.411 243.956 106.488 245.737C106.688 245.916 106.881 246.086 107.088 246.257C108.923 247.846 110.615 249.226 112.086 250.31L112.75 250.83L113.578 251.446C115.505 252.886 116.683 253.673 116.683 253.673C116.683 253.673 116.791 254.69 116.876 256.189C116.926 257.058 116.976 258.09 116.998 259.159C117.026 262.633 116.819 266.731 115.648 268.327Z" fill="black"/>
<path id="Vector_16" d="M115.201 268.809C114.291 269.377 112.931 268.742 110.971 266.046C109.825 264.576 108.574 263.2 107.227 261.931L107.156 261.864L106.487 261.2C103.949 258.762 100.755 255.881 97.3214 252.63C97.2412 252.565 97.1657 252.493 97.0957 252.416C95.1992 250.643 93.2393 248.723 91.2652 246.758C90.9338 246.432 90.6024 246.093 90.264 245.745C88.149 243.588 86.0339 241.313 84.0034 238.942L83.9118 238.831L81.2891 235.758L81 235.425L81.5358 235.137C82.7062 232.182 83.8836 229.287 85.061 226.332C85.1879 226.029 85.3148 225.704 85.4417 225.401C85.6109 224.972 85.7871 224.551 85.9493 224.13C86.0057 223.997 86.055 223.864 86.1114 223.739C86.2101 223.488 86.3159 223.236 86.4076 223C87.867 224.913 89.3687 226.871 90.8845 228.806C90.9019 228.82 90.9163 228.838 90.9268 228.858L91.6318 229.774C92.4426 230.801 93.2534 231.813 94.0641 232.832C94.7692 233.741 95.5306 234.62 96.2709 235.477C96.3978 235.632 96.5317 235.78 96.6657 235.928C96.7996 236.075 97.0112 236.327 97.1804 236.519C100.132 239.807 103.271 242.905 106.578 245.797C106.769 245.974 106.966 246.144 107.164 246.314C108.912 247.836 110.527 249.158 111.908 250.244C112.169 250.436 112.416 250.636 112.656 250.821L113.474 251.434C115.469 252.911 116.688 253.746 116.688 253.746C116.688 253.746 116.858 255.445 116.949 257.713C116.985 258.651 117.006 259.678 116.999 260.727C116.977 264.243 116.597 267.937 115.201 268.809Z" fill="#106450"/>
<path id="Vector_17" opacity="0.1" d="M198 164.111L125.944 254.987L119.719 262.846L118.803 264C118.372 262.715 117.868 261.458 117.294 260.236C117.141 259.912 116.98 259.567 116.798 259.214C115.724 256.946 114.271 254.899 112.508 253.171C112.25 252.935 111.984 252.715 111.719 252.516L111.279 252.208C110.855 251.928 110.405 251.694 109.937 251.509C108.34 250.739 106.887 249.673 105.647 248.363L105.088 247.819C102.04 244.568 99.2366 241.073 96.7039 237.364C96.5432 237.136 96.3895 236.916 96.2498 236.703C95.4253 235.519 94.9362 234.769 94.9362 234.769C94.9362 234.769 94.4052 234.093 93.5389 233.086C92.8402 232.233 91.9389 231.145 90.9677 230.042C89.4654 228.223 87.802 226.559 86 225.072C86.1677 224.646 86.3424 224.227 86.5031 223.807C86.559 223.675 86.6079 223.543 86.6638 223.418C86.7616 223.168 86.8664 222.918 86.9572 222.683C88.145 219.742 89.3235 216.828 90.4926 213.941C92.407 209.236 94.3074 204.58 96.1939 199.973L97.186 197.569L100.03 190.658L101.12 188.041L101.937 186.056C104.914 178.91 107.86 171.899 110.776 165.022L156.379 122.382L161.871 119.632L167.16 117L170.947 118.147L171.513 118.309L175.188 119.426H175.237L176.124 119.698L177.948 120.25L178.849 132.961V133.071V133.424L180.512 135.938L181.546 137.519L181.993 137.703L183.886 138.475L184.459 138.703L184.669 138.791L186.325 139.467L191.027 141.386L192.152 145.062L192.851 147.429L193.235 148.701L193.605 149.627L198 164.111Z" fill="black"/>
<path id="Vector_18" d="M199 163.133L125.742 255.083L119.425 263L119.362 262.809C118.69 260.867 117.859 258.991 116.877 257.2C116.701 256.877 116.505 256.546 116.308 256.223C115.376 254.609 114.203 253.163 112.834 251.937C112.567 251.717 112.3 251.511 112.027 251.327C111.823 251.182 111.613 251.05 111.395 250.93C111.116 250.776 110.828 250.641 110.532 250.526C108.867 249.724 107.357 248.61 106.075 247.24L105.506 246.689C103.41 244.495 101.446 242.168 99.624 239.72C98.6483 238.419 97.785 237.221 97.0901 236.236L96.6339 235.574C96.5075 235.398 96.3952 235.229 96.2899 235.067C95.7425 234.273 95.4266 233.788 95.4266 233.788C95.4266 233.788 93.3209 231.098 90.9555 228.481C90.9451 228.461 90.9307 228.443 90.9133 228.429C89.6935 227.014 88.38 225.69 86.9827 224.467C86.6731 224.212 86.3445 223.984 86 223.784C86.0562 223.652 86.1053 223.519 86.1614 223.394C86.2597 223.144 86.365 222.894 86.4562 222.659C87.6495 219.719 88.8334 216.806 90.0079 213.919C91.9311 209.215 93.8403 204.559 95.7354 199.953L96.7321 197.549L99.5889 190.639L100.684 188.023L101.505 186.038C104.495 178.893 107.455 171.883 110.384 165.007C110.388 164.983 110.388 164.958 110.384 164.934L157.166 121.388L161.89 119.036L167.997 116L171.654 117.103L172.222 117.272L175.205 118.176L175.907 118.382L176.736 118.632L178.841 119.271L179.782 132.444L180.259 133.179L180.336 133.296L180.435 133.451L181.888 135.656L182.477 136.553L184.821 137.508L187.741 138.692L192.009 140.426L193.469 145.212L193.729 146.064L194.108 147.299L194.29 147.902L194.41 148.277L199 163.133Z" fill="#E7EFFD"/>
<path id="Vector_19" opacity="0.1" d="M187.896 144.837C187.896 144.837 178.763 145.302 177.776 146.432C176.79 147.561 174.42 150.218 174.42 150.218L170.834 160.167C170.834 160.167 164.259 170.168 162.549 171.851C160.84 173.534 148.649 191.145 148.649 191.145L128.995 217.221L103.086 251.217L91.4309 254L91 244.132L137.891 184.347L147.044 172.457C147.044 172.457 164.516 152.218 166.504 150.314C168.491 148.41 174.427 144.299 174.427 144.299C174.427 144.299 178.332 138.394 175.4 132.563C172.467 126.732 175.942 132.674 175.942 132.674L180.32 133.353L181.46 136.571C181.46 136.571 188.966 141.213 187.896 144.837Z" fill="black"/>
<path id="Vector_20" d="M188.899 144.805C188.899 144.805 179.766 145.271 178.779 146.4C177.792 147.53 175.422 150.188 175.422 150.188L171.877 160.142C171.877 160.142 165.267 170.147 163.536 171.816C161.806 173.485 149.635 191.125 149.635 191.125L129.985 217.206L104.073 251.224L92.417 254L92 244.179L138.889 184.369L148.05 172.466C148.05 172.466 165.524 152.219 167.477 150.314C169.431 148.409 175.401 144.296 175.401 144.296C175.401 144.296 179.307 138.389 176.374 132.563C173.441 126.737 176.923 132.666 176.923 132.666L181.302 133.345L182.442 136.565C182.442 136.565 189.949 141.18 188.899 144.805Z" fill="#1B43A8"/>
<path id="Vector_21" opacity="0.1" d="M200 139.084C200 139.084 200.111 140.281 196.986 143.729C193.86 147.176 188.594 157 188.594 157C188.594 157 186.601 141.945 182 138L200 139.084Z" fill="black"/>
<path id="Vector_22" d="M200.999 138.091C200.999 138.091 201.118 139.288 197.993 142.726C194.867 146.165 189.601 156 189.601 156C189.601 156 187.608 140.95 183 137L200.999 138.091Z" fill="#E7EFFD"/>
<path id="Vector_23" opacity="0.1" d="M181.343 112L182 138C182 138 164.445 132.572 161.377 132.617C158.308 132.661 174.992 113.603 174.992 113.603L181.343 112Z" fill="black"/>
<path id="Vector_24" d="M182.343 110L183 136C183 136 165.445 130.572 162.377 130.617C159.308 130.661 175.985 111.603 175.985 111.603L182.343 110Z" fill="#E7EFFD"/>
<path id="Vector_25" opacity="0.1" d="M199.768 139C199.768 139 201.859 139.837 201.03 143.407C200.2 146.977 201.636 150.656 201.636 150.656C201.636 150.656 213.036 168.644 211.601 171.163L217.621 178.883C217.621 178.883 219.565 181.784 214.646 187.065C209.726 192.346 210.465 194.204 210.465 194.204C210.465 194.204 208.047 202.166 205.204 204.487C202.361 206.808 203.329 210.642 203.329 210.642L167.31 225.794C167.31 225.794 156 236.077 153.778 241.961C151.555 247.844 137.054 268.865 137.054 268.865C137.054 268.865 136.015 266.992 135.11 268.035C134.204 269.078 125.089 281.336 125.089 281.336C125.089 281.336 121.298 286 120.581 288.292C119.863 290.584 112.261 298.178 112.261 298.178L107.919 304.972C107.919 304.972 98.094 308.483 94.6795 302.526C91.265 296.57 101.829 269.43 101.829 269.43L116.783 244.12L132.622 220.345L144.886 205.971L172.759 174.953L189.727 152.801C189.727 152.801 197.288 139.154 199.768 139Z" fill="black"/>
<path id="Vector_26" d="M201.622 138C201.622 138 203.73 138.835 202.894 142.397C202.058 145.958 203.498 149.69 203.498 149.69C203.498 149.69 214.996 167.787 213.549 170.321L219.618 178.087C219.618 178.087 221.578 181.006 216.619 186.319C211.66 191.632 212.404 193.502 212.404 193.502C212.404 193.502 209.967 201.512 207.101 203.847C204.235 206.182 205.212 210.039 205.212 210.039L168.89 225.254C168.89 225.254 157.546 235.665 155.263 241.577C152.98 247.488 138.405 268.637 138.405 268.637C138.405 268.637 137.359 266.752 136.445 267.802C135.532 268.851 126.345 281.184 126.345 281.184C126.345 281.184 122.524 285.876 121.8 288.189C121.077 290.502 113.413 298.128 113.413 298.128L109.03 304.97C109.03 304.97 99.1334 308.495 95.6845 302.502C92.2357 296.509 102.94 269.206 102.94 269.206L118.035 243.749L134.001 219.83L146.342 205.369L174.439 174.164L191.543 151.877C191.543 151.877 199.164 138.126 201.622 138Z" fill="#1B43A8"/>
<path id="Vector_27" opacity="0.1" d="M187 255.731L188.109 263.934C188.109 263.934 194.555 271.806 200.585 276.028L204.183 277.669L204.876 278L204.183 277.595C200.863 275.499 198.908 273.233 197.945 270.916C194.015 261.631 205.708 251.582 208.446 249.412C208.716 249.191 208.889 249.051 208.965 249H209H208.896C208.668 249.051 208.436 249.083 208.203 249.096C208.007 249.107 207.81 249.107 207.614 249.096L200.696 251.207L200.474 251.376L187 255.731Z" fill="black"/>
<path id="Vector_28" d="M203.484 206.812L204.975 209.88L200.559 214.804C200.559 214.804 203.499 217.259 200.962 221.171C198.425 225.082 198.135 227.914 198.135 227.914C198.135 227.914 198.545 236.38 195.542 239.744L196.418 244.424C196.418 244.424 203.972 249.829 208 248.824C208 248.824 183.861 266.414 203.81 278C203.81 278 179.529 266.909 177.663 267.087C175.798 267.264 167.6 264.587 165.65 256.817C163.7 249.046 166.76 243.988 166.76 243.988C166.76 243.988 169.028 232.454 169.869 231.315C170.71 230.176 168.413 225.156 168.413 225.156L179.055 201L203.484 206.812Z" fill="#1B43A8"/>
<path id="Vector_29" opacity="0.1" d="M182 110.452V110.496L180.977 112.041L176.907 118.216L176.207 119.266L175.198 120.812L173.405 123.562L165.846 131.46L164.585 132.776L152.544 145.347L125.966 173.137L106.604 184.968C106.604 184.968 103.837 186.447 101 188L101.82 186.003C104.804 178.816 107.758 171.764 110.681 164.847C110.685 164.823 110.685 164.798 110.681 164.773C121.812 138.455 132.474 114.223 142.204 93C142.368 93.0769 142.525 93.1684 142.673 93.2736C144.866 94.8191 147.458 96.372 148.446 96.971L148.859 97.215C149.284 97.9335 149.752 98.6226 150.26 99.2781C151.065 100.306 152.067 101.312 152.894 101.312C154.561 101.312 162.449 106.628 163.591 107.967C164.113 108.475 164.7 108.903 165.335 109.239C167.177 110.326 169.643 111.398 169.643 111.398L175.401 112.426L175.625 112.47H175.695C177.244 112.685 180.599 111.139 181.629 110.622L181.923 110.481L182 110.452Z" fill="black"/>
<path id="Vector_30" d="M182 110.798L180.727 112.404L176.113 118.217L175.365 119.167L175.309 119.219L172.512 122.748L164.29 131.323L163.003 132.663L153.774 142.292L125.164 172.143L105.838 183.93L102 186C104.979 178.839 107.927 171.814 110.845 164.923C110.849 164.899 110.849 164.874 110.845 164.85C121.955 138.631 132.596 114.489 142.308 93.3462C142.364 93.2284 142.413 93.1105 142.468 93C145.104 94.8049 148.062 96.4993 148.062 96.4993C148.062 96.4993 148.251 96.8308 148.558 97.2949C149.095 98.1211 149.706 98.8908 150.383 99.5934C150.828 100.126 151.437 100.475 152.103 100.581C153.767 100.581 161.64 105.877 162.78 107.211C163.617 107.973 164.56 108.597 165.576 109.06C167.184 109.914 168.82 110.622 168.82 110.622L174.784 111.697C176.365 111.977 180.721 111.034 181.776 110.791C181.834 110.797 181.893 110.797 181.951 110.791H181.993L182 110.798Z" fill="#1B43A8"/>
<path id="Vector_31" opacity="0.1" d="M68 274L67 273.245L67.15 273C67.3996 273.347 67.6836 273.681 68 274Z" fill="black"/>
<path id="Vector_32" opacity="0.1" d="M66 283.219L60 291C61.0385 288.353 62.0889 285.686 63.1514 283L66 283.219Z" fill="black"/>
<path id="Vector_33" d="M94 232.301L93.4183 232.688L92.9838 232.977L83.9854 239L83.8943 238.879L81.2873 235.53L81 235.167L81.5326 234.853L90.4049 229.684L90.9725 229.354L91.5892 229C92.3951 230.087 93.1941 231.19 94 232.301Z" fill="#3F3D56"/>
<path id="Vector_34" opacity="0.1" d="M209 188.92C209 188.92 204.351 187.333 201.497 188.327C198.644 189.322 209 188.92 209 188.92Z" fill="black"/>
<path id="Vector_35" opacity="0.1" d="M195 225C195 225 193.477 236.865 189.088 236.999C184.7 237.132 195 225 195 225Z" fill="black"/>
<path id="Vector_36" opacity="0.1" d="M104 219C104.038 217.984 110.868 189.345 106.594 188L104 219Z" fill="black"/>
<path id="Vector_37" opacity="0.1" d="M193.093 90.5409C189.869 93.6456 187.433 97.5321 186 101.855L186.161 101.986C187.563 103.022 189.616 102.3 191.397 102.417C192.488 102.49 193.531 102.917 194.378 103.638C195.225 104.359 195.834 105.338 196.12 106.438C196.357 107.602 196.277 108.812 195.889 109.931C195.502 111.051 194.822 112.035 193.927 112.774C197.136 110.884 199.751 107.986 202.953 106.081C206.156 104.176 210.53 103.511 212.912 106.081C213.936 107.19 214.686 108.913 216.227 108.949C217.153 108.949 218.022 108.329 218.947 108.117C223.523 107.183 227.126 114.314 227.7 118.088C228.268 121.737 228.303 126.847 229.592 131C232.144 128.504 234.199 125.509 235.639 122.186C237.08 118.863 237.877 115.277 237.987 111.633C238.097 107.989 237.516 104.358 236.278 100.947C235.041 97.5369 233.17 94.4138 230.773 91.7562C228.377 89.0987 225.501 86.9588 222.31 85.4587C219.12 83.9587 215.677 83.1278 212.178 83.0136C208.679 82.8994 205.192 83.5041 201.918 84.7931C198.643 86.0822 195.644 88.0303 193.093 90.5263V90.5409Z" fill="black"/>
<path id="Vector_38" d="M219.888 107.733C218.962 107.941 218.1 108.604 217.167 108.581C215.631 108.581 214.873 106.787 213.849 105.655C211.472 103.018 207.095 103.689 203.89 105.655C200.685 107.621 198.069 110.562 194.849 112.491C195.748 111.74 196.43 110.735 196.818 109.593C197.206 108.45 197.285 107.215 197.045 106.027C196.758 104.905 196.149 103.906 195.301 103.17C194.453 102.434 193.41 101.998 192.317 101.924C190.536 101.805 188.495 102.542 187.085 101.477C185.675 100.412 185.76 97.9767 186.65 96.2192C187.541 94.4616 189.007 93.0764 190.087 91.4306C192.135 88.3177 192.689 84.4749 194.295 81.0939C196.241 77.0075 199.537 73.8259 203.553 72.1573C205.657 71.2934 207.916 70.8987 210.034 70.0422C213.253 68.7464 216.129 66.408 219.432 65.4399C224.959 63.8164 231.054 66.8251 233.116 72.187C234.105 74.7414 234.238 77.6682 235.332 80.1704C236.805 83.5217 239.8 85.7037 242.479 88.0272C245.158 90.3508 247.767 93.2403 247.985 97.0458C248.237 101.395 245.25 105.588 245.179 109.967C245.179 111.806 245.649 113.571 245.733 115.396C245.818 117.22 245.39 119.298 243.966 120.475C242.128 122.001 239.056 121.748 238.032 123.953C237.779 124.638 237.655 125.369 237.668 126.105C237.447 129.941 236.391 133.671 234.582 137C229.132 133.679 229.574 123.841 228.676 117.935C228.073 114.055 224.475 106.779 219.888 107.733Z" fill="#372B2B"/>
<path id="Vector_39" opacity="0.1" d="M188 203C188 203 169.367 221.194 169.005 224.67C168.643 228.146 188 203 188 203Z" fill="black"/>
<g id="Group" opacity="0.1">
<path id="Vector_40" d="M239.124 121.917C240.104 119.784 243.073 119.969 244.915 118.567C244.646 119.243 244.22 119.837 243.676 120.293C242.331 121.4 240.322 121.57 238.942 122.433C238.986 122.255 239.047 122.082 239.124 121.917Z" fill="black"/>
<path id="Vector_41" d="M196.201 110.457C199.331 108.554 201.914 105.691 205.058 103.817C208.202 101.942 212.628 101.219 215.002 103.817C216.024 104.938 216.78 106.68 218.314 106.716C219.245 106.716 220.106 106.082 221.03 105.875C225.61 104.931 229.202 112.14 229.783 115.955C230.659 121.673 230.259 131.088 235.308 134.593C235 135.331 234.678 135.988 234.307 136.667C228.866 133.376 229.307 123.628 228.411 117.777C227.83 113.962 224.209 106.753 219.658 107.698C218.734 107.904 217.872 108.561 216.941 108.539C215.408 108.539 214.651 106.761 213.629 105.639C211.255 103.027 206.886 103.691 203.686 105.639C200.486 107.587 197.874 110.502 194.66 112.413C195.291 111.874 195.815 111.21 196.201 110.457Z" fill="black"/>
<path id="Vector_42" d="M187.847 94.4456C186.958 96.187 186.846 98.5851 188.281 99.655C189.717 100.725 191.726 99.9797 193.505 100.098C194.596 100.172 195.638 100.604 196.486 101.333C197.333 102.062 197.943 103.051 198.231 104.163C198.455 105.284 198.391 106.446 198.046 107.532C197.702 108.617 197.089 109.586 196.271 110.339C196.966 109.013 197.173 107.463 196.852 105.986C196.566 104.874 195.958 103.884 195.111 103.155C194.265 102.426 193.223 101.994 192.132 101.92C190.354 101.802 188.316 102.533 186.909 101.478C185.501 100.422 185.585 98.0095 186.475 96.2682C187.025 95.2709 187.676 94.3384 188.414 93.4864C188.208 93.7945 188.019 94.1148 187.847 94.4456Z" fill="black"/>
<path id="Vector_43" d="M195.458 79.4595C193.876 82.8094 193.358 86.6168 191.257 89.7011C190.844 90.3283 190.375 90.9112 189.906 91.4941C191.936 88.4172 192.489 84.6172 194.065 81.282C194.778 79.7803 195.688 78.3917 196.768 77.1573C196.275 77.8874 195.837 78.6571 195.458 79.4595Z" fill="black"/>
</g>
<path id="Vector_44" d="M257.373 254.99C252.95 262.593 239.64 264.044 230.976 278C228.072 264.51 232.186 241.223 236.287 232.343C238.256 228.078 241.255 225.182 244.625 224.29C247.995 223.398 251.459 224.584 254.255 227.587C260.078 233.841 262.1 246.866 257.373 254.99Z" fill="#1B43A8"/>
<path id="Ellipse 577" d="M247 247C249.209 247 251 244.09 251 240.5C251 236.91 249.209 234 247 234C244.791 234 243 236.91 243 240.5C243 244.09 244.791 247 247 247Z" fill="white"/>
<path id="Ellipse 578" d="M227.5 299C231.642 299 235 295.418 235 291C235 286.582 231.642 283 227.5 283C223.358 283 220 286.582 220 291C220 295.418 223.358 299 227.5 299Z" fill="#1B43A8"/>
</g>
</g>
<defs>
<linearGradient id="paint0_linear_1_433" x1="75.205" y1="417.989" x2="259.235" y2="81.0376" gradientUnits="userSpaceOnUse">
<stop stop-color="#808080" stop-opacity="0.25"/>
<stop offset="0.54" stop-color="#808080" stop-opacity="0.12"/>
<stop offset="1" stop-color="#808080" stop-opacity="0.1"/>
</linearGradient>
</defs>
</svg>
