<svg width="236" height="327" viewBox="0 0 236 327" fill="none" xmlns="http://www.w3.org/2000/svg">
<g id="lostUser">
<path id="Vector" d="M222.068 195.151C222.068 193.095 220.155 194.156 219.889 194.245C219.121 193.581 218.284 193.01 217.394 192.543C213.127 190.207 206.68 188.785 201.544 187.953C201.526 187.946 201.506 187.946 201.488 187.953C196.961 187.216 193.471 186.965 193.471 186.965L190.802 187.002H189.807C190.156 186.456 190.669 186.049 191.264 185.846C192.007 185.75 188.125 185.448 186.282 185.315H186.205L185.35 185.256C181.3 186.258 173.711 180.784 173.711 180.784L172.828 176.113C175.827 172.702 175.393 164.178 175.393 164.178C175.393 164.178 175.645 161.319 178.196 157.385C180.746 153.451 177.768 150.96 177.768 150.96L182.176 146.017C181.986 145.164 181.959 144.28 182.096 143.417C182.234 142.553 182.532 141.726 182.975 140.985C183.244 140.566 183.578 140.197 183.963 139.894V139.857L184.033 139.791C186.913 137.47 189.344 129.41 189.344 129.41C189.344 129.41 188.784 127.974 191.937 124.076V124.032C192.357 123.516 192.848 122.964 193.415 122.345C193.415 122.293 193.5 122.249 193.542 122.197C198.601 116.863 196.611 113.916 196.611 113.916L190.465 106.063C191.916 103.513 180.27 85.2198 180.27 85.2198C180.27 85.2198 178.784 81.455 179.625 77.8523C179.861 77.0036 179.885 76.1055 179.695 75.2442C179.584 74.7578 179.358 74.309 179.036 73.9401C178.839 73.718 178.6 73.5401 178.336 73.417L177.915 73.3802L178.413 72.9971C178.616 72.8571 178.812 72.7024 179.015 72.555C179.45 72.7319 179.884 72.8866 180.326 73.0266C184.603 74.4793 189.159 74.7778 193.574 73.8946C197.99 73.0114 202.123 70.9749 205.594 67.9724C205.769 67.8325 205.937 67.6777 206.099 67.523C206.26 67.3683 206.54 67.1252 206.757 66.9115C206.855 66.8157 206.954 66.7273 207.038 66.6316C207.122 66.5358 207.367 66.2926 207.528 66.1158C207.577 66.2779 207.626 66.4326 207.682 66.5947C207.902 67.2477 208.167 67.883 208.474 68.4955C208.5 68.552 208.531 68.6063 208.565 68.6576C208.563 68.6797 208.563 68.7019 208.565 68.7239C208.614 68.8344 208.677 68.9376 208.733 69.0407C209.133 69.743 209.618 70.387 210.177 70.9563C210.314 71.0984 210.459 71.2313 210.611 71.3541C210.83 71.5502 211.064 71.7252 211.312 71.8772C211.349 71.911 211.389 71.9406 211.431 71.9656C211.473 71.9994 211.517 72.0289 211.564 72.054C211.746 71.7151 211.922 71.3689 212.09 71.0226C213.578 67.9705 214.444 64.6256 214.634 61.2017C214.642 60.7849 214.675 60.3691 214.732 59.9566C214.77 59.6414 214.857 59.3352 214.991 59.0504C215.25 58.4903 215.669 58.0293 216.189 57.7316C217.03 57.2818 217.913 56.9262 218.824 56.6707L219.041 56.5896L219.307 56.4938L219.826 56.2802L219.91 56.236C220.064 56.1697 220.204 56.0886 220.351 56.0149C220.396 55.9812 220.442 55.9516 220.492 55.9265C220.659 55.8281 220.819 55.7147 220.968 55.5876L221.038 55.5287C221.174 55.4201 221.301 55.2993 221.417 55.1677C221.473 55.1087 221.508 55.0351 221.564 54.9761C221.641 54.8868 221.712 54.7907 221.774 54.6888L221.942 54.4309C221.978 54.3491 222.021 54.2703 222.068 54.1952C222.604 53.0529 222.846 51.7826 222.769 50.5114C222.671 48.6842 222.159 46.916 222.18 45.0815C222.243 40.6979 225.25 36.5131 224.983 32.1589C224.745 28.3867 222.103 25.4544 219.377 23.1116C216.652 20.7687 213.624 18.5805 212.132 15.2283C211.018 12.716 210.864 9.79106 209.862 7.22716C207.759 1.85623 201.593 -1.17182 196.022 0.42693C192.687 1.39208 189.786 3.71285 186.541 5.00216C184.397 5.84943 182.148 6.23254 180.01 7.09454C177.486 8.12008 175.224 9.7496 173.403 11.854C173.08 12.2223 172.779 12.5907 172.485 13.0033L172.211 13.3938C172.008 13.6885 171.805 13.9832 171.623 14.2926C171.539 14.4252 171.462 14.5505 171.384 14.6905C171.129 15.1169 170.895 15.5571 170.684 16.0093C170.481 16.4292 170.305 16.8565 170.13 17.2912C169.156 19.7667 168.554 22.4043 167.383 24.7619C167.124 25.2988 166.829 25.8157 166.5 26.3091C166.045 26.9942 165.519 27.6352 165.001 28.2836C164.861 28.4604 164.721 28.6372 164.58 28.7993C164.523 28.8853 164.46 28.9666 164.391 29.0424C164.293 29.1824 164.181 29.315 164.076 29.455C163.971 29.595 163.95 29.6244 163.894 29.7055C163.838 29.7865 163.683 30.0076 163.592 30.1623C163.501 30.317 163.487 30.3023 163.438 30.3833C163.298 30.6117 163.172 30.8475 163.046 31.0832V31.1348C162.653 31.9281 162.438 32.8048 162.415 33.6987C162.407 34.141 162.468 34.5817 162.597 35.0027C162.631 35.1108 162.671 35.2166 162.716 35.3196C162.822 35.5566 162.961 35.7752 163.13 35.9679C163.046 36.211 162.948 36.4615 162.871 36.7046C162.688 37.2646 162.52 37.8392 162.366 38.4065C162.268 38.797 162.191 39.1433 162.107 39.5485C161.78 41.0406 161.572 42.5586 161.483 44.0869L161.035 44.33C160.246 44.742 159.434 45.1037 158.603 45.4131H158.519C157.818 45.5752 152.983 46.6361 151.288 46.3266L145.24 45.2141C145.24 45.2141 143.839 44.6026 142.304 43.829C141.146 43.2969 140.066 42.5949 139.095 41.744C137.939 40.4326 129.943 35.0248 128.262 35.0322C127.575 34.9194 126.949 34.5539 126.496 34.0008C125.988 33.3474 125.52 32.6609 125.094 31.9452C125.094 31.9452 124.933 31.8568 124.681 31.6947C124.366 31.2306 124.169 30.8843 124.169 30.8843C124.169 30.8843 121.794 29.5139 119.376 27.9373L118.346 30.1475C118.29 30.2581 118.241 30.3759 118.185 30.4938C108.431 51.6386 97.7658 75.782 86.6522 102.003C86.6563 102.027 86.6563 102.052 86.6522 102.077C83.7232 108.953 80.7685 115.979 77.788 123.155L76.9682 125.144L75.875 127.767L73.023 134.693L72.028 137.102C70.136 141.714 68.2301 146.38 66.3101 151.1C65.1328 153.993 63.9509 156.913 62.7644 159.86C62.6733 160.103 62.5682 160.354 62.4701 160.597C62.414 160.722 62.3649 160.855 62.3089 160.988C62.1477 161.407 61.9725 161.827 61.8043 162.255C61.6782 162.557 61.5521 162.881 61.426 163.183C60.2487 166.13 59.0785 169.077 57.9223 171.965L57.3898 172.252L57.6771 172.584C57.579 172.827 57.4809 173.063 57.3898 173.321C52.5547 185.462 47.8832 197.361 43.3752 209.016L42.8706 210.328L42.7655 210.586C41.579 213.665 40.4111 216.723 39.2619 219.758C38.2341 222.47 37.2134 225.156 36.1997 227.818C22.108 265.039 10.1886 298.642 1.32438 325.961C0.903941 326.263 0.455474 326.61 0 327C0.455474 326.639 0.896934 326.263 1.30336 326.005C1.65403 325.754 2.0191 325.525 2.39649 325.32C3.22135 324.859 3.97888 324.276 4.64583 323.589C4.94714 323.294 5.24146 322.992 5.52876 322.675C7.17252 320.739 8.66303 318.664 9.9854 316.472C10.1987 316.206 10.4331 315.959 10.6861 315.735L11.0575 315.381L11.1136 315.33C11.3168 315.146 11.534 314.939 11.7793 314.726L11.8213 314.689L12.1857 314.372L12.2277 314.335L12.6201 313.989C13.8184 312.958 15.2829 311.742 16.6774 310.593L17.1819 310.187L18.8847 308.802L19.7255 308.132L21.5825 306.658C21.5995 306.628 21.6182 306.598 21.6385 306.57C21.8067 306.341 22.1921 305.833 22.7317 305.133C22.7418 305.117 22.7564 305.104 22.7737 305.096C22.8372 305.004 22.905 304.916 22.9769 304.831C23.7197 303.918 24.6867 302.776 25.7799 301.641C25.913 301.508 26.0461 301.361 26.1933 301.228L26.5927 300.823L27.2444 300.212C27.8852 299.613 28.5591 299.055 29.2625 298.539C30.1626 297.856 31.0236 297.118 31.8412 296.329L32.0163 296.167C32.1355 296.042 32.2686 295.909 32.4087 295.784C32.5096 295.694 32.6055 295.598 32.6961 295.496L32.9974 295.202L33.4949 294.708L33.8102 294.391L34.553 293.655L35.3869 292.785L35.513 292.653C35.9404 292.196 36.3749 291.732 36.8163 291.275L37.3279 290.73C37.5381 290.501 37.7483 290.266 37.9585 290.045C38.3159 289.669 38.6593 289.308 39.0236 288.903L39.8014 288.048C40.0537 287.761 40.306 287.495 40.5442 287.23C40.9296 286.81 41.294 286.412 41.6373 286.022L41.7144 285.933L42.6044 284.946C42.6044 284.946 42.6044 284.946 42.6464 284.895C42.8636 284.666 43.0528 284.453 43.235 284.239L43.4102 284.04C43.5854 283.863 43.7395 283.679 43.8727 283.532C44.3982 282.95 44.6996 282.603 44.6996 282.603L51.0061 275.052L57.4318 267.161L57.7191 266.822C57.7191 266.822 59.3588 264.229 61.0336 262.085L61.2578 261.797C61.8295 261.043 62.4702 260.35 63.1708 259.727C63.7352 259.229 64.2537 258.677 64.7194 258.077C64.7544 258.077 64.7825 257.996 64.8245 257.952C66.7165 255.623 69.162 252.006 69.9468 250.82L70.2061 250.437C70.8579 249.867 71.4584 249.236 72 248.551C72.6579 247.749 73.188 246.841 73.5696 245.861C73.9392 244.982 74.4099 244.153 74.9711 243.393C74.974 243.381 74.974 243.369 74.9711 243.356L75.0832 243.194L75.4826 242.649C75.9776 242.75 76.4787 242.814 76.9822 242.841C79.2849 242.933 81.5863 242.624 83.7933 241.927C83.8576 241.909 83.9209 241.887 83.9825 241.861C84.5571 241.721 84.9915 241.588 85.2227 241.515L85.426 241.448L89.7775 234.744L89.8826 234.589C89.8826 234.589 92.181 232.298 94.3813 229.844C94.6195 229.579 94.8508 229.314 95.082 229.056C96.6517 227.273 98.0391 225.52 98.3124 224.591C99.0131 222.271 102.874 217.555 102.874 217.555C102.874 217.555 109.496 208.655 112.082 205.296C112.187 205.156 112.292 205.016 112.383 204.905L112.733 204.456C112.813 204.514 112.887 204.578 112.958 204.647C113.153 204.85 113.329 205.072 113.483 205.311C113.497 205.341 113.514 205.371 113.532 205.399L113.749 205.075C113.897 204.869 114.1 204.552 114.373 204.161C114.584 204.37 114.77 204.605 114.927 204.861L114.99 204.957C114.99 204.957 129.635 183.694 131.919 177.697C132.446 176.446 133.107 175.262 133.888 174.168C136.881 169.814 141.926 164.789 144.294 162.513L144.995 161.857C145.359 161.503 145.577 161.312 145.577 161.312L145.829 161.886C145.829 161.931 145.829 161.975 145.878 162.026C146.481 163.463 147.7 166.646 147.048 167.523C146.214 168.672 143.979 180.276 143.979 180.276C143.979 180.276 140.931 185.374 142.907 193.206C144.883 201.037 153.137 203.771 154.98 203.609C156.165 203.498 166.521 208.029 173.858 211.352L175.666 212.17L177.488 212.988L180.326 214.292L180.487 214.365C180.718 214.483 180.956 214.594 181.188 214.689L181.335 214.483L181.405 214.373L182.106 214.719L181.405 214.299C181.692 213.872 182.19 213.098 182.806 212.044C182.837 211.972 182.874 211.903 182.918 211.838L183.115 211.492L183.444 210.903C183.479 210.821 183.521 210.755 183.556 210.689L183.892 210.055C183.914 210.025 183.932 209.993 183.949 209.959C184.411 209.075 184.895 208.088 185.35 207.012C185.42 206.872 185.49 206.718 185.553 206.57L187.361 206.408L188.608 206.298L189.309 206.239L190.22 206.143L190.648 206.231L207.914 207.543L209.175 207.646C210.819 207.798 212.475 207.587 214.038 207.027C215.6 206.467 217.034 205.57 218.248 204.394C219.461 203.218 220.428 201.788 221.086 200.196C221.744 198.605 222.078 196.886 222.068 195.151Z" fill="url(#paint0_linear_1_431)"/>
<path id="Vector_2" d="M179.836 215C179.836 215 192.734 196.333 183.917 186L163 192.783L164.101 200.978C164.101 200.978 173.166 212.156 179.836 215Z" fill="#65617D"/>
<path id="Vector_3" opacity="0.1" d="M163 192.783L164.101 200.978C164.101 200.978 170.498 208.841 176.483 213.06C177.542 213.822 178.669 214.472 179.847 215C179.847 215 179.922 214.904 180.053 214.699C180.068 214.675 180.082 214.651 180.094 214.625C181.653 212.211 183.015 209.659 184.167 206.997C184.593 205.99 185.013 204.91 185.398 203.814C186.774 199.633 187.627 194.9 186.43 190.711C185.998 189.159 185.278 187.717 184.311 186.47C184.229 186.367 184.146 186.257 184.05 186.154C184.012 186.099 183.971 186.048 183.926 186L183.465 186.147L176.393 188.44L163 192.783Z" fill="black"/>
<path id="Vector_4" d="M74 134.917L72 137L73.1137 134L74 134.917Z" fill="#65617D"/>
<path id="Vector_5" opacity="0.1" d="M74 134.917L72 137L73.1137 134L74 134.917Z" fill="black"/>
<path id="Vector_6" d="M186.485 187.144C186.485 187.144 177.168 198.087 182.82 205.02C182.82 205.02 185.541 205.871 189.551 206.668C198.792 208.491 214.841 210.009 219.986 200.031C227.345 185.739 192.23 187.03 192.23 187.03L189.573 187.083L186.485 187.144Z" fill="#DCA6A6"/>
<path id="Vector_7" opacity="0.1" d="M186.634 188.059C186.634 188.059 177.063 198.675 182.87 205.401C182.87 205.401 185.664 206.226 189.784 207L191 206.889C189.414 206.316 187.971 205.395 186.772 204.193C185.237 202.58 184.151 200.156 185.411 196.752C186.113 194.807 186.933 192.907 187.865 191.065C188.403 189.976 189.053 188.948 189.805 188L186.634 188.059Z" fill="black"/>
<path id="Vector_8" d="M171.017 208L174.085 207.724L184.408 206.778L189.673 206.291C188.161 205.725 186.786 204.816 185.645 203.629C184.18 202.029 183.137 199.644 184.339 196.284C185.012 194.362 185.794 192.485 186.681 190.662C188.16 187.753 189.3 186.647 189.929 186.56C190.558 186.473 186.868 186.182 185.092 186.058H185.023C184.518 186.015 184.187 186 184.187 186L183.703 186.145L176.821 188.24L176.6 188.407C174.914 189.695 164.757 198.051 171.017 208Z" fill="#E7EFFD"/>
<path id="Vector_9" d="M89.7524 212.487L79.08 238.404C79.08 238.404 77.2273 240.469 75.5619 242.644C75.5357 242.686 75.5055 242.726 75.4717 242.762L75.0692 243.315C75.0257 243.363 74.9863 243.415 74.9512 243.47C74.9542 243.482 74.9542 243.494 74.9512 243.507C74.2358 244.418 73.6383 245.427 73.1748 246.507C72.8778 247.281 72.4833 248.008 72.0021 248.668C71.4002 249.498 70.7188 250.259 69.9689 250.939C69.937 250.974 69.9021 251.006 69.8648 251.035C69.8648 251.035 67.0892 255.26 64.8964 258.076C64.8548 258.121 64.827 258.172 64.7923 258.202C64.2333 258.944 63.6132 259.633 62.9396 260.259C62.3665 260.761 61.8392 261.319 61.3644 261.925L61.1423 262.213C59.4006 264.425 57.5756 267.293 57.5756 267.293L51.2194 274.984L44.7451 282.762L44.1275 283.5L43.6696 284.009L43.4961 284.208L42.9132 284.864C42.9132 284.864 42.8785 284.864 42.8716 284.915L41.9903 285.904L41.914 285.992C41.567 286.368 41.22 286.774 40.8315 287.201C40.5955 287.467 40.3457 287.732 40.0959 288.02L39.3256 288.875C38.9787 289.251 38.6317 289.612 38.2709 290.018C38.0627 290.239 37.8546 290.475 37.6464 290.704L37.1398 291.249C36.7027 291.706 36.2724 292.171 35.8492 292.628L35.7243 292.761L34.8985 293.631L34.1629 294.368L33.8507 294.685L33.358 295.179L33.0596 295.474C32.97 295.576 32.875 295.672 32.7751 295.762C32.6433 295.902 32.5114 296.027 32.3865 296.145L32.213 296.307C31.3835 297.145 30.5026 297.924 29.5762 298.637C28.6773 299.313 27.8219 300.052 27.0156 300.849L26.6201 301.255C26.4744 301.388 26.3425 301.535 26.2107 301.668C25.1351 302.803 24.1775 303.946 23.435 304.86C23.3638 304.945 23.2966 305.034 23.2338 305.126C23.2167 305.133 23.2021 305.146 23.1921 305.163C22.6578 305.849 22.2762 306.372 22.1096 306.601L22.0194 306.719L20.1806 308.193L19.3479 308.864L17.6616 310.25L17.162 310.656C15.7742 311.806 14.3309 313.023 13.1443 314.055L12.7557 314.402L12.714 314.439L12.3532 314.756L12.3116 314.792C12.0687 315.006 11.8536 315.213 11.6524 315.397L11.5968 315.449L11.2291 315.803C11.0093 316.007 10.8072 316.231 10.6254 316.474C9.29979 318.691 7.80022 320.785 6.14267 322.734C5.85816 323.051 5.56672 323.353 5.26834 323.648C4.64652 324.284 3.94619 324.827 3.1866 325.263C2.77583 325.48 2.37939 325.726 2 326C10.778 298.659 22.5815 265.029 36.5361 227.779C37.5354 225.11 38.5462 222.421 39.5685 219.713C40.7204 216.675 41.8769 213.615 43.0381 210.533L43.1422 210.275L43.6418 208.962C48.0828 197.312 52.7089 185.404 57.5201 173.238C57.6103 172.995 57.7074 172.759 57.8046 172.501L57.5201 172.169L58.0475 171.881C59.1994 168.932 60.3582 166.042 61.517 163.092C61.6419 162.79 61.7669 162.466 61.8918 162.163C62.0583 161.736 62.2318 161.315 62.3914 160.895C62.4469 160.762 62.4954 160.63 62.551 160.504C62.6481 160.254 62.7522 160.003 62.8424 159.767C64.0221 156.818 65.1925 153.895 66.3536 151L78.5804 165.526L79.0939 166.123L87.629 176.114L88.1495 176.711L90.8072 179.823L92.2436 181.504L92.9375 182.307L101.487 192.313L101.598 192.446L102 192.91L89.7524 212.487Z" fill="#7A7891"/>
<path id="Vector_10" d="M151.726 49.0865L150 74.6088C150 74.6088 170.732 84.9627 171.342 81.1613C171.588 79.6822 174.29 77.2417 177.518 74.8159C182.606 70.9776 189 67.154 189 67.154C189 67.154 168.149 34.029 165.672 40.9513C164.766 43.4806 162.668 45.2482 160.366 46.4685C157.638 47.8232 154.721 48.7071 151.726 49.0865Z" fill="#DCA6A6"/>
<path id="Vector_11" opacity="0.1" d="M165.273 40.9564C164.352 43.499 164.559 44.0864 162.225 45.3131C161.689 52.8519 161.704 61.781 167.029 67.766C169.872 70.9791 173.397 73.4562 177.322 75C182.497 71.1414 189 67.2976 189 67.2976C189 67.2976 167.792 33.9974 165.273 40.9564Z" fill="black"/>
<path id="Vector_12" d="M169.482 27.5494C166.934 30.0416 164.875 33.0398 163.423 36.373C161.971 39.7061 161.154 43.3088 161.02 46.9755C160.885 50.6421 161.435 54.3008 162.639 57.7428C163.842 61.1847 165.675 64.3424 168.033 67.0357C170.391 69.7289 173.228 71.9049 176.382 73.4394C179.536 74.9739 182.945 75.8369 186.414 75.979C189.883 76.1212 193.345 75.5398 196.602 74.2679C199.858 72.9961 202.846 71.0588 205.394 68.5666L205.665 68.2876C210.774 63.2165 213.767 56.2081 213.987 48.8044C214.207 41.4007 211.634 34.208 206.836 28.8087C202.038 23.4094 195.407 20.2458 188.401 20.0137C181.396 19.7817 174.591 22.5003 169.482 27.5714V27.5494Z" fill="#DCA6A6"/>
<path id="Vector_13" opacity="0.1" d="M91.6482 205.327C90.7486 206.551 89.2564 206.284 86.8575 203.025C85.7428 201.605 84.5281 200.272 83.2235 199.039C82.9808 198.801 82.7238 198.557 82.4739 198.297C79.8108 195.751 76.3981 192.714 72.7213 189.27L72.4857 189.055C70.8507 187.518 69.1443 185.892 67.4451 184.207L66.4313 183.198C64.1038 180.859 61.7692 178.38 59.5417 175.774L59.4417 175.671C58.6207 174.72 57.8068 173.755 57 172.82C57.0928 172.575 57.1927 172.337 57.2927 172.078L57 171.744L57.5426 171.454C58.7278 168.485 59.9201 165.575 61.1124 162.606C61.2409 162.301 61.3694 161.975 61.4979 161.67C61.6693 161.24 61.8477 160.817 62.0119 160.393C62.0691 160.26 62.119 160.126 62.1762 160L63.0115 161.084C64.368 162.851 65.7531 164.625 67.1524 166.384L67.2738 166.54C68.0663 167.527 68.8516 168.515 69.6441 169.509C69.6798 169.509 69.7084 169.591 69.7441 169.621C70.6222 170.712 71.5218 171.781 72.4285 172.805L72.9569 173.392C73.9278 174.483 74.8988 175.507 75.8698 176.502C78.1545 178.833 80.4105 180.956 82.4881 182.737C82.6881 182.916 82.8808 183.086 83.0879 183.257C84.9227 184.846 86.6148 186.226 88.0855 187.31L88.7495 187.83L89.5777 188.446C91.5054 189.886 92.6834 190.673 92.6834 190.673C92.6834 190.673 92.7905 191.69 92.8762 193.189C92.9262 194.058 92.9761 195.09 92.9975 196.159C93.0261 199.633 92.8191 203.731 91.6482 205.327Z" fill="black"/>
<path id="Vector_14" d="M91.2008 205.809C90.2914 206.377 88.9307 205.742 86.9707 203.046C85.8251 201.576 84.5736 200.2 83.227 198.931L83.1565 198.864L82.4867 198.2C79.9486 195.762 76.7548 192.881 73.3214 189.63C73.2412 189.565 73.1657 189.493 73.0957 189.416C71.1992 187.643 69.2393 185.723 67.2652 183.758C66.9338 183.432 66.6024 183.093 66.264 182.745C64.149 180.588 62.0339 178.313 60.0034 175.942L59.9118 175.831L57.2891 172.758L57 172.425L57.5358 172.137C58.7062 169.182 59.8836 166.287 61.061 163.332C61.1879 163.029 61.3148 162.704 61.4417 162.401C61.6109 161.972 61.7871 161.551 61.9493 161.13C62.0057 160.997 62.055 160.864 62.1114 160.739C62.2101 160.488 62.3159 160.236 62.4076 160C63.867 161.913 65.3687 163.871 66.8845 165.806C66.9019 165.82 66.9163 165.838 66.9268 165.858L67.6318 166.774C68.4426 167.801 69.2534 168.813 70.0641 169.832C70.7692 170.741 71.5306 171.62 72.2709 172.477C72.3978 172.632 72.5317 172.78 72.6657 172.928C72.7996 173.075 73.0112 173.327 73.1804 173.519C76.1323 176.807 79.2707 179.905 82.5784 182.797C82.7687 182.974 82.9661 183.144 83.1635 183.314C84.912 184.836 86.5265 186.158 87.9084 187.244C88.1692 187.436 88.416 187.636 88.6557 187.821L89.4735 188.434C91.4687 189.911 92.6884 190.746 92.6884 190.746C92.6884 190.746 92.8576 192.445 92.9493 194.713C92.9845 195.651 93.0057 196.678 92.9986 197.727C92.9775 201.243 92.5968 204.937 91.2008 205.809Z" fill="#106450"/>
<path id="Vector_15" opacity="0.1" d="M174 101.111L101.944 191.987L95.7188 199.846L94.8035 201C94.372 199.715 93.868 198.458 93.2943 197.236C93.1406 196.912 92.9799 196.567 92.7983 196.214C91.7236 193.946 90.2705 191.899 88.5083 190.171C88.2498 189.935 87.9843 189.715 87.7188 189.516L87.2786 189.208C86.8548 188.928 86.4053 188.694 85.9371 188.509C84.3396 187.739 82.8865 186.673 81.6472 185.363L81.0882 184.819C78.0399 181.568 75.2366 178.073 72.7039 174.364C72.5432 174.136 72.3895 173.916 72.2498 173.703C71.4253 172.519 70.9362 171.769 70.9362 171.769C70.9362 171.769 70.4052 171.093 69.5389 170.086C68.8402 169.233 67.9389 168.145 66.9677 167.042C65.4654 165.223 63.802 163.559 62 162.072C62.1677 161.646 62.3424 161.227 62.5031 160.807C62.559 160.675 62.6079 160.543 62.6638 160.418C62.7616 160.168 62.8664 159.918 62.9572 159.683C64.145 156.742 65.3235 153.828 66.4926 150.941C68.407 146.236 70.3074 141.58 72.1939 136.973L73.186 134.569L76.0297 127.658L77.1197 125.041L77.9371 123.056C80.9135 115.91 83.8597 108.899 86.7756 102.022L132.379 59.3816L137.871 56.632L143.16 54L146.947 55.1469L147.513 55.3086L151.188 56.4261H151.237L152.124 56.6981L153.948 57.2495L154.849 69.9608V70.0711V70.424L156.512 72.9383L157.546 74.519L157.993 74.7028L159.886 75.4747L160.459 75.7026L160.669 75.7908L162.325 76.4672L167.027 78.386L168.152 82.062L168.851 84.4293L169.235 85.7011L169.605 86.6275L174 101.111Z" fill="black"/>
<path id="Vector_16" d="M175 100.133L101.742 192.083L95.4248 200L95.3616 199.809C94.6902 197.867 93.8588 195.991 92.8769 194.2C92.7014 193.877 92.5049 193.546 92.3083 193.223C91.3757 191.609 90.2027 190.163 88.8339 188.937C88.5672 188.717 88.3004 188.511 88.0267 188.327C87.8234 188.182 87.6125 188.05 87.395 187.93C87.116 187.776 86.8275 187.641 86.5316 187.526C84.8673 186.724 83.3569 185.61 82.0745 184.24L81.506 183.689C79.41 181.495 77.4456 179.168 75.624 176.72C74.6483 175.419 73.785 174.221 73.0901 173.236L72.6339 172.574C72.5075 172.398 72.3952 172.229 72.2899 172.067C71.7425 171.273 71.4266 170.788 71.4266 170.788C71.4266 170.788 69.3209 168.098 66.9555 165.481C66.9451 165.461 66.9307 165.443 66.9133 165.429C65.6935 164.014 64.38 162.69 62.9827 161.467C62.6731 161.212 62.3445 160.984 62 160.784C62.0562 160.652 62.1053 160.519 62.1614 160.394C62.2597 160.144 62.365 159.894 62.4562 159.659C63.6495 156.719 64.8334 153.806 66.0079 150.919C67.9311 146.215 69.8403 141.559 71.7354 136.953L72.7321 134.549L75.5889 127.639L76.6839 125.023L77.5051 123.038C80.4952 115.893 83.4549 108.883 86.3842 102.007C86.3883 101.983 86.3883 101.958 86.3842 101.934L133.166 58.3881L137.89 56.0359L143.997 53L147.654 54.1026L148.222 54.2717L151.205 55.1758L151.907 55.3816L152.736 55.6316L154.841 56.2711L155.782 69.4436L156.259 70.1787L156.336 70.2963L156.435 70.4506L157.888 72.6559L158.477 73.5527L160.821 74.5082L163.741 75.6917L168.009 77.4265L169.469 82.2118L169.729 83.0645L170.108 84.2994L170.29 84.9022L170.41 85.2771L175 100.133Z" fill="#E7EFFD"/>
<path id="Vector_17" opacity="0.1" d="M163.896 81.8374C163.896 81.8374 154.763 82.3024 153.776 83.4317C152.79 84.561 150.42 87.2181 150.42 87.2181L146.834 97.1674C146.834 97.1674 140.259 107.168 138.549 108.851C136.84 110.534 124.649 128.145 124.649 128.145L104.995 154.221L79.0859 188.217L67.4309 191L67 181.132L113.891 121.347L123.044 109.457C123.044 109.457 140.516 89.2183 142.504 87.314C144.491 85.4097 150.427 81.2986 150.427 81.2986C150.427 81.2986 154.332 75.394 151.4 69.5631C148.467 63.7322 151.942 69.6738 151.942 69.6738L156.32 70.3528L157.46 73.5709C157.46 73.5709 164.966 78.2134 163.896 81.8374Z" fill="black"/>
<path id="Vector_18" d="M164.899 81.8055C164.899 81.8055 155.766 82.2707 154.779 83.4004C153.792 84.5302 151.422 87.1884 151.422 87.1884L147.877 97.142C147.877 97.142 141.267 107.147 139.536 108.816C137.806 110.485 125.635 128.125 125.635 128.125L105.985 154.206L80.0733 188.224L68.417 191L68 181.179L114.889 121.369L124.05 109.466C124.05 109.466 141.524 89.219 143.477 87.3139C145.431 85.4089 151.401 81.296 151.401 81.296C151.401 81.296 155.307 75.3888 152.374 69.5628C149.441 63.7368 152.923 69.6662 152.923 69.6662L157.302 70.3455L158.442 73.5649C158.442 73.5649 165.949 78.1799 164.899 81.8055Z" fill="#1B43A8"/>
<path id="Vector_19" opacity="0.1" d="M176 76.084C176 76.084 176.111 77.2809 172.986 80.7286C169.86 84.1763 164.594 94 164.594 94C164.594 94 162.601 78.9445 158 75L176 76.084Z" fill="black"/>
<path id="Vector_20" d="M176.999 75.0911C176.999 75.0911 177.118 76.2875 173.993 79.7263C170.867 83.1651 165.601 93 165.601 93C165.601 93 163.608 77.9505 159 74L176.999 75.0911Z" fill="#E7EFFD"/>
<path id="Vector_21" opacity="0.1" d="M157.343 49L158 75C158 75 140.445 69.5718 137.377 69.6166C134.308 69.6613 150.992 50.6031 150.992 50.6031L157.343 49Z" fill="black"/>
<path id="Vector_22" d="M158.343 47L159 73C159 73 141.445 67.5718 138.377 67.6166C135.308 67.6613 151.985 48.6031 151.985 48.6031L158.343 47Z" fill="#E7EFFD"/>
<path id="Vector_23" opacity="0.1" d="M175.768 76C175.768 76 177.859 76.8373 177.03 80.4069C176.2 83.9765 177.636 87.6563 177.636 87.6563C177.636 87.6563 189.036 105.644 187.601 108.163L193.621 115.883C193.621 115.883 195.565 118.784 190.646 124.065C185.726 129.346 186.465 131.204 186.465 131.204C186.465 131.204 184.047 139.166 181.204 141.487C178.361 143.808 179.329 147.642 179.329 147.642L143.31 162.794C143.31 162.794 132 173.077 129.778 178.961C127.555 184.844 113.054 205.865 113.054 205.865C113.054 205.865 112.015 203.992 111.11 205.035C110.204 206.078 101.089 218.336 101.089 218.336C101.089 218.336 97.2984 223 96.5807 225.292C95.8629 227.584 88.2605 235.178 88.2605 235.178L83.9193 241.972C83.9193 241.972 74.094 245.483 70.6795 239.526C67.265 233.57 77.829 206.43 77.829 206.43L92.7829 181.12L108.622 157.345L120.886 142.971L148.759 111.953L165.727 89.801C165.727 89.801 173.288 76.1542 175.768 76Z" fill="black"/>
<path id="Vector_24" d="M177.622 75C177.622 75 179.73 75.835 178.894 79.3967C178.058 82.9584 179.498 86.69 179.498 86.69C179.498 86.69 190.996 104.787 189.549 107.321L195.618 115.087C195.618 115.087 197.578 118.006 192.619 123.319C187.66 128.632 188.404 130.502 188.404 130.502C188.404 130.502 185.967 138.512 183.101 140.847C180.235 143.182 181.212 147.039 181.212 147.039L144.89 162.254C144.89 162.254 133.546 172.665 131.263 178.577C128.98 184.488 114.405 205.637 114.405 205.637C114.405 205.637 113.359 203.752 112.445 204.802C111.532 205.851 102.345 218.184 102.345 218.184C102.345 218.184 98.5237 222.876 97.8002 225.189C97.0767 227.502 89.4134 235.128 89.4134 235.128L85.0304 241.97C85.0304 241.97 75.1334 245.495 71.6845 239.502C68.2357 233.509 78.9405 206.206 78.9405 206.206L94.0353 180.749L110.001 156.83L122.342 142.369L150.439 111.164L167.543 88.8772C167.543 88.8772 175.164 75.1256 177.622 75Z" fill="#6E41C3"/>
<path id="Vector_25" opacity="0.1" d="M163 192.731L164.109 200.934C164.109 200.934 170.555 208.806 176.585 213.028L180.183 214.669L180.876 215L180.183 214.595C176.863 212.499 174.908 210.233 173.945 207.916C170.015 198.631 181.708 188.582 184.446 186.412C184.716 186.191 184.889 186.051 184.965 186H185H184.896C184.668 186.051 184.436 186.083 184.203 186.096C184.007 186.107 183.81 186.107 183.614 186.096L176.696 188.207L176.474 188.376L163 192.731Z" fill="black"/>
<path id="Vector_26" d="M179.484 143.812L180.975 146.88L176.559 151.804C176.559 151.804 179.499 154.259 176.962 158.171C174.425 162.082 174.135 164.914 174.135 164.914C174.135 164.914 174.545 173.38 171.542 176.744L172.418 181.424C172.418 181.424 179.972 186.829 184 185.824C184 185.824 159.861 203.414 179.81 215C179.81 215 155.529 203.909 153.663 204.087C151.798 204.264 143.6 201.587 141.65 193.817C139.7 186.046 142.76 180.988 142.76 180.988C142.76 180.988 145.028 169.454 145.869 168.315C146.71 167.176 144.413 162.156 144.413 162.156L155.055 138L179.484 143.812Z" fill="#6E41C3"/>
<path id="Vector_27" opacity="0.1" d="M158 47.4516V47.4959L156.977 49.0414L152.907 55.216L152.207 56.2661L151.198 57.8116L149.405 60.5624L141.846 68.4599L140.585 69.7762L128.544 82.3472L101.966 110.137L82.6041 121.968C82.6041 121.968 79.8371 123.447 77 125L77.8196 123.003C80.8038 115.816 83.7576 108.764 86.681 101.847C86.6851 101.823 86.6851 101.798 86.681 101.773C97.8121 75.4554 108.474 51.2229 118.204 30C118.368 30.0769 118.525 30.1684 118.673 30.2736C120.866 31.8191 123.458 33.372 124.446 33.971L124.859 34.215C125.284 34.9335 125.752 35.6226 126.26 36.2781C127.065 37.306 128.067 38.3117 128.894 38.3117C130.561 38.3117 138.449 43.6285 139.591 44.9669C140.113 45.4751 140.7 45.9033 141.335 46.2388C143.177 47.3258 145.643 48.3981 145.643 48.3981L151.401 49.4259L151.625 49.4703H151.695C153.244 49.6848 156.599 48.1393 157.629 47.6216L157.923 47.4811L158 47.4516Z" fill="black"/>
<path id="Vector_28" d="M158 47.7985L156.727 49.4045L152.113 55.217L151.365 56.1673L151.309 56.2189L148.512 59.7476L140.29 68.3227L139.003 69.6635L129.774 79.2921L101.164 109.143L81.8385 120.93L78 123C80.9785 115.839 83.9267 108.814 86.8446 101.923C86.8487 101.899 86.8487 101.874 86.8446 101.85C97.9545 75.6307 108.596 51.4893 118.308 30.3462C118.364 30.2284 118.413 30.1105 118.468 30C121.104 31.8049 124.062 33.4993 124.062 33.4993C124.062 33.4993 124.251 33.8308 124.558 34.2949C125.095 35.1211 125.706 35.8908 126.383 36.5934C126.828 37.1255 127.437 37.4751 128.103 37.5806C129.767 37.5806 137.64 42.8774 138.78 44.2108C139.617 44.973 140.56 45.5965 141.576 46.0599C143.184 46.9145 144.82 47.6217 144.82 47.6217L150.784 48.6972C152.365 48.9772 156.721 48.0342 157.776 47.7911C157.834 47.7974 157.893 47.7974 157.951 47.7911H157.993L158 47.7985Z" fill="#6E41C3"/>
<path id="Vector_29" opacity="0.1" d="M44 211L43 210.245L43.15 210C43.3996 210.347 43.6836 210.681 44 211Z" fill="black"/>
<path id="Vector_30" opacity="0.1" d="M42 220.219L36 228C37.0385 225.353 38.0889 222.686 39.1514 220L42 220.219Z" fill="black"/>
<path id="Vector_31" d="M70 169.301L69.4183 169.688L68.9838 169.977L59.9854 176L59.8943 175.879L57.2873 172.53L57 172.167L57.5326 171.853L66.4049 166.684L66.9725 166.354L67.5892 166C68.3951 167.087 69.1941 168.19 70 169.301Z" fill="#3F3D56"/>
<path id="Vector_32" opacity="0.1" d="M185 125.92C185 125.92 180.351 124.333 177.497 125.327C174.644 126.322 185 125.92 185 125.92Z" fill="black"/>
<path id="Vector_33" opacity="0.1" d="M171 162C171 162 169.477 173.865 165.088 173.999C160.7 174.132 171 162 171 162Z" fill="black"/>
<path id="Vector_34" opacity="0.1" d="M80 156C80.0382 154.984 86.8676 126.345 82.5944 125L80 156Z" fill="black"/>
<path id="Vector_35" opacity="0.1" d="M169.093 27.5409C165.869 30.6456 163.433 34.5321 162 38.8546L162.161 38.986C163.563 40.0224 165.616 39.2998 167.397 39.4166C168.488 39.4897 169.531 39.9169 170.378 40.6381C171.225 41.3593 171.834 42.3385 172.12 43.4384C172.357 44.6025 172.277 45.8121 171.889 46.9314C171.502 48.0507 170.822 49.0352 169.927 49.7741C173.136 47.8836 175.751 44.9858 178.953 43.0808C182.156 41.1757 186.53 40.5115 188.912 43.0808C189.936 44.1902 190.686 45.9128 192.227 45.9493C193.153 45.9493 194.022 45.3289 194.947 45.1172C199.523 44.1829 203.126 51.3142 203.7 55.0878C204.268 58.7374 204.303 63.8468 205.592 68C208.144 65.504 210.199 62.5089 211.639 59.1859C213.08 55.8629 213.877 52.2769 213.987 48.6328C214.097 44.9887 213.516 41.3578 212.278 37.9473C211.041 34.5369 209.17 31.4138 206.773 28.7562C204.377 26.0987 201.501 23.9588 198.31 22.4587C195.12 20.9587 191.677 20.1278 188.178 20.0136C184.679 19.8994 181.192 20.5041 177.918 21.7931C174.643 23.0822 171.644 25.0303 169.093 27.5263V27.5409Z" fill="black"/>
<path id="Vector_36" d="M195.888 44.7325C194.962 44.941 194.1 45.6038 193.167 45.5815C191.631 45.5815 190.873 43.7867 189.849 42.6547C187.472 40.0184 183.095 40.6887 179.89 42.6547C176.685 44.6208 174.069 47.5624 170.849 49.4913C171.748 48.7396 172.43 47.7354 172.818 46.5928C173.206 45.4501 173.285 44.2148 173.045 43.0271C172.758 41.9049 172.149 40.9058 171.301 40.17C170.453 39.4341 169.41 38.9983 168.317 38.9237C166.536 38.8045 164.495 39.5418 163.085 38.4769C161.675 37.4119 161.76 34.9767 162.65 33.2192C163.541 31.4616 165.007 30.0764 166.087 28.4306C168.135 25.3177 168.689 21.4749 170.295 18.0939C172.241 14.0075 175.537 10.8259 179.553 9.15726C181.657 8.29339 183.916 7.89868 186.034 7.04225C189.253 5.74644 192.129 3.40802 195.432 2.43989C200.959 0.816397 207.054 3.82506 209.116 9.18704C210.105 11.7414 210.238 14.6682 211.332 17.1704C212.805 20.5217 215.8 22.7037 218.479 25.0272C221.158 27.3508 223.767 30.2403 223.985 34.0458C224.237 38.395 221.25 42.5877 221.179 46.9667C221.179 48.8061 221.649 50.5711 221.733 52.3957C221.818 54.2202 221.39 56.298 219.966 57.4747C218.128 59.0013 215.056 58.7481 214.032 60.9525C213.779 61.6376 213.655 62.3689 213.668 63.1047C213.447 66.9412 212.391 70.6708 210.582 74C205.132 70.6785 205.574 60.8408 204.676 54.9352C204.073 51.0552 200.475 43.7793 195.888 44.7325Z" fill="#372B2B"/>
<path id="Vector_37" opacity="0.1" d="M164 140C164 140 145.367 158.194 145.005 161.67C144.643 165.146 164 140 164 140Z" fill="black"/>
<g id="Group" opacity="0.1">
<path id="Vector_38" d="M215.124 58.9166C216.104 56.7841 219.073 56.9686 220.915 55.5666C220.646 56.243 220.22 56.8369 219.676 57.2932C218.331 58.4 216.322 58.5697 214.942 59.4331C214.986 59.2549 215.047 59.0818 215.124 58.9166Z" fill="black"/>
<path id="Vector_39" d="M172.201 47.4574C175.331 45.5537 177.914 42.6908 181.058 40.8166C184.202 38.9424 188.628 38.2193 191.002 40.8166C192.024 41.9381 192.78 43.6795 194.314 43.7164C195.245 43.7164 196.106 43.0818 197.03 42.8752C201.61 41.9308 205.202 49.1398 205.783 52.9546C206.659 58.6731 206.259 68.0883 211.308 71.5932C211 72.3311 210.678 72.9878 210.307 73.6666C204.866 70.3757 205.307 60.6284 204.411 54.7771C203.83 50.9623 200.209 43.7533 195.658 44.6978C194.734 44.9044 193.872 45.5611 192.941 45.5389C191.408 45.5389 190.651 43.7607 189.629 42.6391C187.255 40.0271 182.886 40.6911 179.686 42.6391C176.486 44.5871 173.874 47.5017 170.66 49.4128C171.291 48.8744 171.815 48.2099 172.201 47.4574Z" fill="black"/>
<path id="Vector_40" d="M163.847 31.4456C162.958 33.187 162.846 35.5851 164.281 36.655C165.717 37.7249 167.726 36.9797 169.505 37.0977C170.596 37.1723 171.638 37.6042 172.486 38.3331C173.333 39.0619 173.943 40.0514 174.231 41.1634C174.455 42.2835 174.391 43.4462 174.046 44.5317C173.702 45.6172 173.089 46.5863 172.271 47.3394C172.966 46.0131 173.173 44.463 172.852 42.9859C172.566 41.874 171.958 40.8841 171.111 40.1551C170.265 39.426 169.223 38.9942 168.132 38.9203C166.354 38.8022 164.316 39.5327 162.909 38.4775C161.501 37.4224 161.585 35.0095 162.475 33.2682C163.025 32.2709 163.676 31.3384 164.414 30.4864C164.208 30.7945 164.019 31.1148 163.847 31.4456Z" fill="black"/>
<path id="Vector_41" d="M171.458 16.4595C169.876 19.8094 169.358 23.6168 167.257 26.7011C166.844 27.3283 166.375 27.9112 165.906 28.4941C167.936 25.4172 168.489 21.6172 170.065 18.282C170.778 16.7803 171.688 15.3917 172.768 14.1573C172.275 14.8874 171.837 15.6571 171.458 16.4595Z" fill="black"/>
</g>
<path id="Vector_42" d="M233.373 191.99C228.95 199.593 215.64 201.044 206.976 215C204.072 201.51 208.186 178.223 212.287 169.343C214.256 165.078 217.255 162.182 220.625 161.29C223.995 160.398 227.459 161.584 230.255 164.587C236.078 170.841 238.1 183.866 233.373 191.99Z" fill="#6E41C3"/>
<path id="Ellipse 577" d="M223 184C225.209 184 227 181.09 227 177.5C227 173.91 225.209 171 223 171C220.791 171 219 173.91 219 177.5C219 181.09 220.791 184 223 184Z" fill="white"/>
<path id="Ellipse 578" d="M203.5 236C207.642 236 211 232.418 211 228C211 223.582 207.642 220 203.5 220C199.358 220 196 223.582 196 228C196 232.418 199.358 236 203.5 236Z" fill="#6E41C3"/>
</g>
<defs>
<linearGradient id="paint0_linear_1_431" x1="51.205" y1="354.989" x2="235.235" y2="18.0376" gradientUnits="userSpaceOnUse">
<stop stop-color="#808080" stop-opacity="0.25"/>
<stop offset="0.54" stop-color="#808080" stop-opacity="0.12"/>
<stop offset="1" stop-color="#808080" stop-opacity="0.1"/>
</linearGradient>
</defs>
</svg>
