<svg width="178" height="462" viewBox="0 0 178 462" fill="none" xmlns="http://www.w3.org/2000/svg">
<g id="port">
<path id="Vector" opacity="0.5" d="M2.32439 461.805C-3.24682 459.201 1.4662 430.914 13.5794 387.306C21.3172 359.328 32.136 325.044 45.234 287.204C46.1766 284.49 47.1333 281.768 48.0899 279.016C49.1685 275.933 50.2612 272.825 51.3679 269.693L51.4664 269.435C51.6212 268.985 51.783 268.542 51.9377 268.1C56.1302 256.298 60.5126 244.223 65.085 231.875C65.1694 231.625 65.2608 231.381 65.3523 231.138L65.5844 230.511C66.6818 227.56 67.7932 224.61 68.9116 221.608C69.0312 221.298 69.1438 220.973 69.2634 220.664C69.4252 220.228 69.587 219.808 69.7417 219.38C69.798 219.247 69.8402 219.107 69.8965 218.989C69.9879 218.731 70.0864 218.48 70.1778 218.252C71.3033 215.301 72.4218 212.314 73.5403 209.4C75.3692 204.63 77.1841 199.907 78.9849 195.231C79.2991 194.409 79.6156 193.598 79.9345 192.797C80.8396 190.441 81.747 188.103 82.6568 185.782C83.0085 184.897 83.3602 184.004 83.6979 183.126C83.9652 182.455 84.2255 181.777 84.4857 181.113C87.3417 173.869 90.1789 166.766 92.9973 159.803C93.0044 159.779 93.0044 159.753 92.9973 159.729C103.725 133.227 114.1 108.893 123.737 87.6199C123.794 87.5092 123.836 87.3912 123.892 87.2806L124.912 85.0235C149.645 30.6538 169.102 -2.90038 175.679 0.197603C182.446 3.3546 174.019 44.5578 155.554 105.131C155.315 105.935 155.068 106.724 154.815 107.528C154.777 107.686 154.73 107.841 154.675 107.993C153.737 111.13 152.75 114.326 151.713 117.582C151.657 117.774 151.594 117.965 151.53 118.157C149.185 125.681 146.691 133.45 144.046 141.466C143.687 142.543 143.342 143.642 142.962 144.733C138.882 157.118 134.521 170.012 129.843 183.303C129.562 184.122 129.273 184.934 128.985 185.76C124.307 199.074 119.376 212.779 114.213 226.764C113.882 227.649 113.552 228.541 113.228 229.434C113.158 229.626 113.087 229.81 113.01 230.002C111.72 233.469 110.424 236.95 109.12 240.447C108.747 241.42 108.417 242.394 108.023 243.36C107.094 245.831 106.166 248.302 105.209 250.736C105.132 250.958 105.047 251.179 104.963 251.393C104.878 251.607 104.829 251.739 104.759 251.909C104.604 252.337 104.442 252.757 104.28 253.178C103.844 254.321 103.415 255.464 102.979 256.593C102.226 258.57 101.474 260.524 100.721 262.494L100.489 263.084C100.491 263.111 100.491 263.138 100.489 263.165C97.4313 271.087 94.3831 278.874 91.3442 286.525C90.3219 289.107 89.3019 291.671 88.2843 294.219C87.5316 296.1 86.786 297.973 86.0333 299.825C80.448 313.67 74.9612 326.925 69.6151 339.486C37.2852 415.335 10.3014 465.537 2.32439 461.805Z" fill="#221C8B"/>
<path id="Vector_2" opacity="0.5" d="M16.1629 408.904C12.7661 407.356 16.9843 387.253 26.5482 356.022C32.6736 335.993 41.0054 311.38 50.9104 284.158L53.0752 278.263C53.8873 276.047 54.7133 273.812 55.5532 271.557C55.5794 271.494 55.6026 271.43 55.6228 271.365L55.9847 270.407C59.1449 261.893 62.4419 253.198 65.8758 244.32C65.9384 244.136 66.0081 243.967 66.0777 243.79C66.1473 243.613 66.189 243.488 66.2517 243.34C67.073 241.203 67.9014 239.073 68.7366 236.922L69.0081 236.236L69.3631 235.315C69.4049 235.219 69.4397 235.116 69.4745 235.028C69.5093 234.939 69.6206 234.667 69.6902 234.49C70.5348 232.338 71.3724 230.203 72.203 228.086C73.5673 224.647 74.92 221.24 76.2611 217.865L76.9571 216.111C77.6532 214.409 78.3075 212.729 78.9827 211.048L79.7553 209.132C79.9572 208.646 80.1451 208.16 80.34 207.659C82.4607 202.436 84.5651 197.307 86.6533 192.272C86.6574 192.255 86.6574 192.237 86.6533 192.22C94.5884 173.06 102.217 155.477 109.22 140.068C109.261 139.987 109.296 139.899 109.338 139.818L110.076 138.182C128.076 98.7787 141.83 74.2614 145.84 76.0963C149.967 77.9828 142.826 107.334 128.508 150.783L127.937 152.507C127.902 152.618 127.867 152.729 127.825 152.839C127.083 155.089 126.32 157.376 125.535 159.7L125.396 160.112C123.573 165.517 121.654 171.095 119.64 176.848C119.368 177.629 119.097 178.418 118.811 179.199C115.693 188.093 112.359 197.371 108.837 206.936L108.19 208.698C104.654 218.278 100.941 228.118 97.0525 238.219C96.8089 238.86 96.5653 239.501 96.3147 240.142C96.259 240.282 96.2033 240.415 96.1546 240.555L93.2381 248.079L92.4167 250.179C91.7207 251.962 91.0246 253.745 90.3285 255.507C90.2728 255.669 90.2102 255.824 90.1475 255.978C90.0849 256.133 90.0501 256.229 89.9944 256.354L89.6394 257.261C89.3123 258.086 88.9921 258.911 88.6649 259.729L87.0292 264.018L86.8552 264.446V264.504C84.5721 270.223 82.3076 275.841 80.0616 281.358C79.3052 283.225 78.5465 285.077 77.7855 286.914C77.2286 288.28 76.6718 289.631 76.1149 290.967C71.9803 300.96 67.9362 310.547 64.0104 319.626C40.2398 374.556 21.0284 411.129 16.1629 408.904Z" fill="#38544F"/>
</g>
</svg>
