<svg width="501" height="325" viewBox="0 0 501 325" fill="none" xmlns="http://www.w3.org/2000/svg">
<g id="scaredalien">
<path id="Vector" opacity="0.1" d="M264.5 324.51C383.456 324.51 479.888 314.127 479.888 301.319C479.888 288.511 383.456 278.128 264.5 278.128C145.545 278.128 49.1131 288.511 49.1131 301.319C49.1131 314.127 145.545 324.51 264.5 324.51Z" fill="#44C459"/>
<path id="Vector_2" d="M292.187 293.644C293.082 300.047 242.814 298.374 244.033 292.952L243.784 293.064C237.752 295.334 203.416 286.944 205.371 280.993C175.296 258.299 160.31 236.461 178.106 181.2C178.174 180.842 178.194 180.474 178.166 180.108C178.15 179.98 178.179 179.846 178.184 179.72C178.213 179.25 178.237 178.781 178.266 178.31C178.257 178.236 178.273 178.163 178.28 178.092C178.286 178.02 178.297 177.862 178.304 177.747C178.532 173.801 178.836 169.83 179.216 165.834C181.037 145.608 184.654 125.649 190.02 106.231C190.134 105.842 190.239 105.455 190.354 105.072C190.416 104.842 190.484 104.612 190.553 104.386L190.99 102.879C191.007 102.812 191.03 102.749 191.047 102.682C191.12 102.456 191.184 102.232 191.253 102.012C195.773 86.8136 201.251 73.2905 207.365 61.9859C203.631 60.2667 190.422 45.2907 191.66 32.0738C192.987 18.0432 208.645 10.8542 212.809 11.3766C216.972 11.8989 219.286 23.7042 217.979 37.7324C217.683 41.008 217.185 44.255 216.489 47.4524C227.734 32.1253 240.451 23.9026 253.178 25.5062C263.736 26.8402 273.033 34.7788 280.566 47.5974C280.61 46.9572 280.668 46.3099 280.725 45.6572C282.051 31.6266 286.456 20.6807 290.624 21.2025C294.793 21.7242 310.238 35.1927 308.931 49.221C308.069 58.5503 292.683 64.8273 290.051 68.9712C299.673 97.5673 306.569 140.613 316.068 183.317C328.681 240.079 322.576 271.96 292.187 293.644Z" fill="#306507"/>
<path id="Vector_3" opacity="0.2" d="M262.689 104.01C261.669 114.562 249.318 121.85 234.285 121.348C232.98 121.305 231.659 121.203 230.323 121.042C229.223 120.905 228.144 120.733 227.087 120.523C211.947 117.548 200.928 107.289 201.963 96.5735C202.736 88.516 210.135 82.3535 220.284 80.1205C222.491 79.6459 224.733 79.3587 226.989 79.2616C229.436 79.1608 231.891 79.2655 234.328 79.5745C251.094 81.5999 263.791 92.5495 262.689 104.01Z" fill="#440707"/>
<path id="Vector_4" d="M256.628 111.431C257.304 104.184 249.749 97.2877 239.751 96.0278C229.754 94.7678 221.101 99.6214 220.425 106.868C219.748 114.116 227.304 121.012 237.301 122.272C247.299 123.532 255.951 118.678 256.628 111.431Z" fill="#C22730"/>
<path id="Vector_5" d="M225.904 85.8804C224.493 91.5913 222.927 90.3703 221.087 89.7868C219.247 89.2033 217.86 89.4559 219.275 83.7444C219.582 82.503 219.962 81.2866 220.412 80.1025C222.501 79.6453 224.624 79.3727 226.761 79.2874C226.741 81.5238 226.453 83.7407 225.904 85.8804Z" fill="white"/>
<path id="Vector_6" d="M234.515 121.828C233.2 121.786 231.87 121.685 230.524 121.524C229.417 121.388 228.331 121.216 227.265 121.007C227.76 115.155 229.59 114.471 231.551 114.654C233.511 114.837 234.907 115.892 234.515 121.828Z" fill="white"/>
<path id="Vector_7" opacity="0.2" d="M237.68 66.3759C243.65 65.6543 247.858 59.8379 247.078 53.3847C246.298 46.9315 240.826 42.2851 234.856 43.0067C228.886 43.7283 224.678 49.5447 225.458 55.9979C226.238 62.4511 231.71 67.0975 237.68 66.3759Z" fill="black"/>
<path id="Vector_8" opacity="0.1" d="M210.542 37.4331C211.011 32.4097 209.338 28.0787 206.805 27.7595C204.272 27.4402 201.838 31.2537 201.369 36.277C200.9 41.3004 202.574 45.6314 205.107 45.9506C207.64 46.2699 210.073 42.4564 210.542 37.4331Z" fill="black"/>
<path id="Vector_9" opacity="0.12" d="M296.687 47.6359C299.024 43.2885 299.127 38.632 296.917 37.2352C294.707 35.8385 291.02 38.2305 288.682 42.5778C286.345 46.9252 286.242 51.5817 288.452 52.9785C290.663 54.3752 294.349 51.9832 296.687 47.6359Z" fill="black"/>
<path id="Vector_10" d="M232.662 49.8265C232.476 49.9353 232.296 50.0552 232.124 50.1856C232.768 50.4622 233.307 50.9437 233.658 51.5568C233.978 52.113 234.131 52.7511 234.097 53.392C234.063 54.033 233.844 54.6485 233.466 55.1624C233.089 55.6764 232.57 56.066 231.973 56.2831C231.377 56.5002 230.73 56.5351 230.112 56.3837C230.24 56.8147 230.418 57.2295 230.64 57.6198C231.204 58.5961 232.04 59.3834 233.043 59.8824C234.046 60.3813 235.171 60.5695 236.276 60.4231C237.381 60.2768 238.416 59.8024 239.251 59.06C240.085 58.3176 240.682 57.3404 240.965 56.2518C241.249 55.1632 241.207 54.012 240.844 52.9436C240.481 51.8752 239.814 50.9375 238.927 50.2488C238.039 49.5602 236.972 49.1516 235.859 49.0745C234.746 48.9974 233.637 49.2553 232.673 49.8157L232.662 49.8265Z" fill="#D0CFE3"/>
<path id="Vector_11" opacity="0.2" d="M222.728 72.116C222.567 74.17 221.977 73.5563 221.198 73.4444C220.42 73.3324 219.751 73.7635 219.912 71.7095C220.073 69.6554 221.784 66.0027 221.784 66.0027C221.784 66.0027 222.889 70.062 222.728 72.116Z" fill="black"/>
<path id="Vector_12" opacity="0.2" d="M240.376 36.9441C240.142 39.2363 239.413 38.5433 238.444 38.4341C237.475 38.3249 236.633 38.8115 236.871 36.5472C237.108 34.2829 239.309 30.2306 239.309 30.2306C239.309 30.2306 240.614 34.6742 240.376 36.9441Z" fill="black"/>
<path id="Vector_13" opacity="0.2" d="M261.419 48.3178C261.157 50.384 260.44 49.7857 259.472 49.6966C258.505 49.6075 257.658 50.0601 257.92 47.9938C258.182 45.9276 260.425 42.2106 260.425 42.2106C260.425 42.2106 261.676 46.2522 261.419 48.3178Z" fill="black"/>
<path id="Vector_14" opacity="0.2" d="M269.021 67.1432C268.884 69.3978 268.289 68.7161 267.508 68.5839C266.726 68.4517 266.061 68.9174 266.198 66.6628C266.335 64.4082 268.003 60.4162 268.003 60.4162C268.003 60.4162 269.161 64.8825 269.021 67.1432Z" fill="black"/>
<g id="Group" opacity="0.1">
<path id="Vector_15" d="M232.386 111.579C229.851 123.84 219.315 139.933 203.679 153.767C195.108 161.312 185.608 167.544 175.447 172.285C175.543 171.746 175.643 171.207 175.738 170.668C176.459 166.669 177.261 162.649 178.143 158.607C182.385 138.738 188.383 119.35 196.054 100.709C196.214 100.337 196.364 99.9652 196.525 99.5988C196.615 99.3778 196.71 99.1568 196.805 98.9413C207.246 93.6597 216.795 91.5363 223.483 93.1855C225.754 93.6766 227.855 94.8308 229.555 96.5215C229.851 96.8246 230.128 97.1468 230.387 97.4862C231.872 99.5196 232.746 101.992 232.892 104.573C233.058 106.923 232.887 109.286 232.386 111.579Z" fill="black"/>
</g>
<g id="Group_2" opacity="0.1">
<path id="Vector_16" d="M231.554 110.178C229.019 122.439 218.483 138.531 202.842 152.366C194.605 159.621 185.507 165.665 175.788 170.339C176.49 166.448 177.269 162.541 178.128 158.617C182.37 138.749 188.368 119.361 196.039 100.72C196.199 100.348 196.349 99.976 196.51 99.6095C196.6 99.3886 196.695 99.1676 196.79 98.952L197.406 97.5077L197.772 96.6778C207.511 92.0429 216.359 90.2429 222.657 91.795C224.928 92.2866 227.029 93.4428 228.729 95.1364C229.024 95.4377 229.302 95.7581 229.56 96.0957C231.056 98.1274 231.941 100.602 232.096 103.188C232.249 105.534 232.066 107.892 231.554 110.178Z" fill="black"/>
</g>
<path id="Vector_17" d="M226.369 112.03C225.307 124.491 216.792 141.708 202.928 157.299C195.619 165.475 187.311 172.554 178.224 178.348C178.215 178.273 178.231 178.201 178.238 178.13C178.244 178.058 178.255 177.9 178.262 177.785C178.492 173.844 178.798 169.876 179.179 165.884C181.01 145.677 184.64 125.737 190.021 106.335C190.136 105.947 190.24 105.561 190.356 105.178C190.419 104.948 190.487 104.718 190.555 104.493L190.994 102.987C191.011 102.92 191.034 102.857 191.051 102.79C200.221 96.9599 208.845 94.0798 215.323 94.8688C217.636 95.0875 219.86 95.9812 221.751 97.4529C222.082 97.7166 222.396 98.0027 222.693 98.3095C224.412 100.147 225.575 102.493 226.029 105.035C226.475 107.34 226.59 109.7 226.369 112.03Z" fill="#306507"/>
<path id="Vector_18" opacity="0.1" d="M273.99 232.14C280.829 200.578 263.442 169.243 235.155 162.151C206.869 155.059 178.394 174.895 171.556 206.457C164.718 238.019 182.105 269.354 210.391 276.446C238.678 283.538 267.152 263.701 273.99 232.14Z" fill="black"/>
<path id="Vector_19" d="M282.877 228.691C285.879 196.537 264.857 167.514 235.924 163.868C206.991 160.222 181.103 183.332 178.101 215.486C175.099 247.64 196.121 276.662 225.054 280.308C253.987 283.955 279.875 260.845 282.877 228.691Z" fill="#306507"/>
<path id="Vector_20" d="M226.891 204.832C226.79 205.347 226.604 205.833 226.345 206.263C226.085 206.693 225.757 207.058 225.379 207.337C224.615 207.901 223.694 208.082 222.818 207.84C221.941 207.598 221.182 206.952 220.707 206.046C220.232 205.139 220.079 204.045 220.283 203.005C220.71 200.837 221.971 202.351 223.793 202.852C225.615 203.353 227.303 202.67 226.891 204.832Z" fill="#D3D2DC"/>
<g id="Group_3" opacity="0.1">
<path id="Vector_21" d="M303.363 205.521C291.564 211.26 267.867 186.313 255.602 157.162C247.261 137.319 244.42 117.874 247.186 105.673C247.669 103.378 248.476 101.177 249.58 99.1461C250.781 96.8996 252.59 95.1004 254.766 93.9885C255.137 93.8061 255.518 93.6495 255.908 93.5196C258.129 92.8126 260.488 92.7754 262.727 93.4118C274.139 96.322 288.543 113.104 298.323 136.37C310.582 165.516 315.161 199.776 303.363 205.521Z" fill="black"/>
<g id="Group_4" opacity="0.1">
<path id="Vector_22" d="M259.941 115.632C258.619 116.936 253.929 113.751 249.42 108.507C248.609 107.559 247.862 106.605 247.186 105.673C247.669 103.378 248.476 101.177 249.58 99.1461C251.236 100.552 252.781 102.102 254.2 103.781C258.679 108.998 261.239 114.322 259.941 115.632Z" fill="black"/>
<path id="Vector_23" d="M262.727 93.4118C263.886 94.5041 264.99 95.6627 266.033 96.8825C270.512 102.121 273.047 107.424 271.745 108.739C270.442 110.054 265.733 106.864 261.254 101.62C258.749 98.7149 256.87 95.7885 255.908 93.5358L262.727 93.4118Z" fill="black"/>
</g>
</g>
<g id="Group_5" opacity="0.1">
<path id="Vector_24" d="M304.911 203.516C293.112 209.261 269.415 184.308 257.151 155.163C248.804 135.314 245.963 115.869 248.729 103.668C249.213 101.373 250.023 99.1718 251.128 97.1412C252.328 94.8935 254.137 93.0939 256.314 91.9836C256.684 91.8054 257.064 91.6506 257.451 91.5202C259.673 90.8078 262.035 90.7704 264.275 91.4124C275.683 94.3172 290.086 111.105 299.871 134.365C312.13 163.511 316.704 197.771 304.911 203.516Z" fill="black"/>
</g>
<path id="Vector_25" d="M309.723 196.798C298.749 203.937 272.294 181.887 256.653 154.283C246.004 135.492 240.85 116.441 242.115 103.942C242.318 101.596 242.853 99.3041 243.702 97.147C244.616 94.7626 246.187 92.7518 248.205 91.3842C248.552 91.1602 248.91 90.9585 249.279 90.78C251.39 89.8095 253.719 89.4903 256.011 89.8572C267.652 91.3948 283.924 106.414 296.407 128.44C312.042 156.034 320.703 189.658 309.723 196.798Z" fill="#306507"/>
<path id="Vector_26" d="M470.219 191.28C470.219 191.28 474.086 196.677 468.436 204.834C462.785 212.992 458.15 219.875 460.001 224.964C460.001 224.964 468.532 209.814 475.478 209.587C482.425 209.36 477.858 200.389 470.219 191.28Z" fill="#128368"/>
<path id="Vector_27" opacity="0.1" d="M470.219 191.28C470.559 191.799 470.825 192.369 471.007 192.971C477.783 201.473 481.396 209.404 474.882 209.601C468.813 209.784 461.537 221.369 459.795 224.298C459.857 224.518 459.926 224.745 460.001 224.964C460.001 224.964 468.532 209.814 475.478 209.587C482.425 209.36 477.858 200.389 470.219 191.28Z" fill="black"/>
<path id="Vector_28" d="M477.412 198.163C477.412 200.067 477.213 201.605 476.967 201.605C476.72 201.605 476.521 200.067 476.521 198.163C476.521 196.259 476.768 197.16 477.014 197.16C477.261 197.16 477.412 196.259 477.412 198.163Z" fill="#FFD037"/>
<path id="Vector_29" d="M479.881 200.433C478.317 201.341 476.953 201.898 476.836 201.663C476.72 201.429 477.885 200.506 479.449 199.598C481.012 198.69 480.402 199.349 480.519 199.598C480.635 199.847 481.445 199.547 479.881 200.433Z" fill="#FFD037"/>
<path id="Vector_30" d="M449.783 191.28C449.783 191.28 445.916 196.677 451.573 204.834C457.231 212.992 461.86 219.875 460.001 224.964C460.001 224.964 451.47 209.814 444.531 209.587C437.591 209.36 442.151 200.389 449.783 191.28Z" fill="#128368"/>
<path id="Vector_31" opacity="0.1" d="M449.783 191.28C449.447 191.801 449.181 192.37 448.995 192.971C442.22 201.473 438.612 209.404 445.127 209.601C451.189 209.784 458.465 221.369 460.214 224.298C460.157 224.524 460.089 224.747 460.008 224.964C460.008 224.964 451.477 209.814 444.537 209.587C437.598 209.36 442.151 200.389 449.783 191.28Z" fill="#128368"/>
<path id="Vector_32" d="M442.569 198.163C442.569 200.067 442.768 201.605 443.015 201.605C443.262 201.605 443.461 200.067 443.461 198.163C443.461 196.259 443.214 197.16 442.967 197.16C442.72 197.16 442.569 196.259 442.569 198.163Z" fill="#FFD037"/>
<path id="Vector_33" d="M440.128 200.433C441.692 201.341 443.056 201.898 443.173 201.663C443.289 201.429 442.117 200.506 440.553 199.598C438.99 198.69 439.607 199.349 439.49 199.598C439.374 199.847 438.565 199.547 440.128 200.433Z" fill="#FFD037"/>
<path id="Vector_34" opacity="0.1" d="M460.008 266.287C482.345 266.287 500.454 263.32 500.454 259.66C500.454 256 482.345 253.033 460.008 253.033C437.67 253.033 419.562 256 419.562 259.66C419.562 263.32 437.67 266.287 460.008 266.287Z" fill="#44C359"/>
<path id="Vector_35" d="M480.82 217.678L480.628 219.37L480.354 221.75L480.244 222.746L479.97 225.126L479.854 226.121L479.586 228.501L476.486 255.595C476.212 258.019 472.509 259.901 468.045 259.901H451.964C447.493 259.901 443.797 258.019 443.522 255.595L440.423 228.501L440.149 226.121L440.039 225.126L439.765 222.746L439.648 221.75L439.381 219.37L439.182 217.678C439.031 216.309 441.033 215.159 443.557 215.159H476.473C478.976 215.159 480.971 216.309 480.82 217.678Z" fill="#4D2807"/>
<path id="Vector_36" d="M480.628 219.37L480.361 221.75H439.655L439.38 219.37H480.628Z" fill="#9D9CB5"/>
<path id="Vector_37" d="M480.244 222.746L479.977 225.126H440.039L439.765 222.746H480.244Z" fill="#9D9CB5"/>
<path id="Vector_38" d="M479.854 226.121L479.586 228.501H440.423L440.155 226.121H479.854Z" fill="#9D9CB5"/>
<g id="vase1">
<path id="Vector_39" d="M48.1648 180.609C48.1648 180.609 54.1605 190.325 45.3946 204.997C36.6286 219.669 29.4033 232.056 32.3253 241.207C32.3253 241.207 45.5539 213.932 56.316 213.575C67.078 213.217 59.9666 196.993 48.1648 180.609Z" fill="#128368"/>
<path id="Vector_40" opacity="0.1" d="M48.1648 180.609C48.6874 181.549 49.1012 182.574 49.3943 183.656C59.8907 198.949 65.4918 213.217 55.39 213.575C45.9865 213.913 34.7084 234.746 32.0065 240.013C32.0976 240.417 32.2039 240.812 32.3253 241.207C32.3253 241.207 45.5539 213.932 56.316 213.575C67.078 213.217 59.9666 196.993 48.1648 180.609Z" fill="black"/>
<path id="Vector_41" d="M59.2759 192.996C59.2759 196.419 58.9647 199.184 58.5852 199.184C58.2058 199.184 57.8946 196.419 57.8946 192.996C57.8946 189.572 58.2817 191.19 58.6536 191.19C59.0254 191.19 59.2759 189.572 59.2759 192.996Z" fill="#FFD037"/>
<path id="Vector_42" d="M63.1011 197.078C60.68 198.714 58.5473 199.702 58.3803 199.288C58.2134 198.874 60.0197 197.209 62.4408 195.526C64.8618 193.842 63.9056 195.084 64.0877 195.526C64.2699 195.968 65.5221 195.441 63.1011 197.078Z" fill="#FFD037"/>
<path id="Vector_43" d="M16.4554 180.609C16.4554 180.609 10.4521 190.325 19.218 204.997C27.984 219.669 35.2093 232.056 32.2873 241.207C32.2873 241.207 19.0663 213.932 8.30423 213.575C-2.4578 213.217 4.61568 196.993 16.4554 180.609Z" fill="#128368"/>
<path id="Vector_44" opacity="0.1" d="M16.4554 180.609C15.9282 181.549 15.514 182.578 15.2259 183.666C4.72194 198.959 -0.871585 213.227 9.22256 213.584C18.6261 213.923 29.9118 234.755 32.6137 240.022C32.5232 240.428 32.4142 240.827 32.2873 241.217C32.2873 241.217 19.0663 213.941 8.30423 213.584C-2.4578 213.227 4.61568 196.993 16.4554 180.609Z" fill="black"/>
<path id="Vector_45" d="M5.3064 192.996C5.3064 196.419 5.60998 199.184 5.99705 199.184C6.38412 199.184 6.68771 196.419 6.68771 192.996C6.68771 189.572 6.30064 191.19 5.92875 191.19C5.55686 191.19 5.3064 189.572 5.3064 192.996Z" fill="#FFD037"/>
<path id="Vector_46" d="M1.4812 197.078C3.90228 198.714 6.03497 199.702 6.19435 199.288C6.35374 198.874 4.56257 197.209 2.1415 195.526C-0.279583 193.842 0.676711 195.084 0.486971 195.526C0.297231 195.968 -0.947463 195.441 1.4812 197.078Z" fill="#FFD037"/>
<path id="Vector_47" d="M64.5659 228.106L64.2623 231.144L63.8373 235.433L63.6627 237.22L63.2453 241.508L63.0631 243.295L62.6457 247.575L57.8415 296.323C57.4165 300.668 51.6788 304.063 44.7571 304.063H19.8253C12.896 304.063 7.17344 300.668 6.74083 296.323L1.93661 247.622L1.51919 243.342L1.34463 241.555L0.912014 237.267L0.737469 235.48L0.320028 231.191L0.0164488 228.153C-0.218828 225.689 2.87772 223.619 6.80154 223.619H57.7884C61.697 223.572 64.8087 225.642 64.5659 228.106Z" fill="#4D2807"/>
<path id="Vector_48" d="M64.2622 231.144L63.8448 235.433H0.744992L0.319977 231.144H64.2622Z" fill="#9D9CB5"/>
<path id="Vector_49" d="M63.6702 237.22L63.2452 241.508H1.34457L0.919556 237.22H63.6702Z" fill="#9D9CB5"/>
<path id="Vector_50" d="M63.0631 243.295L62.6456 247.575H1.93656L1.51912 243.295H63.0631Z" fill="#9D9CB5"/>
</g>
<path id="Vector_51" d="M360.163 287.266C359.576 289.52 358.035 291.396 356.173 292.763C355.87 292.987 355.558 293.194 355.243 293.389C355.146 293.447 355.049 293.509 354.947 293.563C354.838 293.629 354.729 293.691 354.62 293.749H345.867C345.709 293.422 345.556 293.091 345.402 292.763C341.651 284.693 339.017 275.986 339.466 267.116C339.644 263.676 340.35 260.286 341.558 257.07C343.961 250.661 348.348 245.114 354.381 242.322C354.531 242.252 354.688 242.181 354.842 242.115C354.794 242.293 354.745 242.467 354.697 242.645C354.049 245.032 353.592 247.469 353.329 249.932C353.305 250.123 353.284 250.313 353.268 250.508C352.693 256.448 353.204 262.445 354.773 268.193C354.777 268.206 354.781 268.222 354.786 268.235C355.129 269.506 355.529 270.759 355.983 271.992C356.339 272.966 356.724 273.927 357.145 274.871C358.901 278.836 361.256 283.061 360.163 287.266Z" fill="#44C359"/>
<path id="Vector_52" d="M355.134 242.512C355.047 242.628 354.96 242.739 354.873 242.855C353.054 245.256 351.509 247.852 350.267 250.595C350.201 250.731 350.139 250.867 350.085 251.007C348.383 254.837 347.29 258.906 346.846 263.071C346.841 263.099 346.838 263.128 346.837 263.157C346.734 264.131 346.672 265.113 346.647 266.095C346.555 267.935 346.755 269.779 347.239 271.557C347.681 273.01 348.455 274.34 349.501 275.444C349.604 275.555 349.708 275.666 349.82 275.774C349.902 275.86 349.994 275.947 350.081 276.03C350.917 276.826 351.833 277.564 352.62 278.418C352.98 278.801 353.306 279.215 353.593 279.656C354.051 280.394 354.347 281.221 354.461 282.081C354.575 282.942 354.505 283.817 354.256 284.648C353.692 286.736 352.404 288.497 351.087 290.177C350.428 291.018 349.749 291.868 349.161 292.767C348.946 293.089 348.747 293.415 348.565 293.749H348.043C348.217 293.415 348.407 293.089 348.614 292.767C350.126 290.395 352.276 288.357 353.39 285.746C354.144 283.984 354.372 281.987 353.419 280.258C353.14 279.756 352.802 279.288 352.413 278.864C351.655 278.01 350.747 277.28 349.923 276.508C349.716 276.314 349.513 276.116 349.318 275.91C348.286 274.865 347.49 273.614 346.982 272.238C346.407 270.491 346.136 268.659 346.179 266.821C346.179 265.649 346.241 264.469 346.357 263.298C346.369 263.149 346.386 262.996 346.402 262.844C347.249 255.471 350.063 248.458 354.55 242.533C354.633 242.417 354.72 242.306 354.807 242.195C354.985 241.964 355.312 242.285 355.134 242.512Z" fill="#44C359"/>
<path id="Vector_53" d="M346.651 263.373C345.254 263.14 343.986 262.424 343.074 261.352C342.161 260.28 341.663 258.921 341.669 257.519C341.67 257.462 341.693 257.407 341.733 257.367C341.774 257.326 341.829 257.303 341.887 257.302C341.945 257.3 342.001 257.321 342.043 257.36C342.085 257.399 342.111 257.453 342.114 257.51C342.106 258.815 342.57 260.081 343.422 261.077C344.274 262.074 345.458 262.737 346.76 262.945C347.043 262.991 346.933 263.418 346.651 263.373Z" fill="#44C359"/>
<path id="Vector_54" d="M349.278 275.818C351.683 273.987 353.365 271.236 353.991 268.113C354.053 267.803 354.49 267.924 354.428 268.233C353.772 271.482 352.016 274.341 349.509 276.241C349.27 276.422 349.04 275.998 349.278 275.818Z" fill="#44C359"/>
<path id="Vector_55" d="M385.973 258.705C385.828 258.815 385.679 258.926 385.535 259.041C383.571 260.53 381.733 262.174 380.038 263.958C379.906 264.093 379.774 264.233 379.645 264.372L379.641 264.376C375.623 268.698 372.446 273.719 370.27 279.186L370.257 279.223C370.253 279.235 370.249 279.243 370.245 279.255C369.382 281.444 368.687 283.693 368.165 285.984C367.66 288.221 367.246 290.619 366.457 292.774C366.337 293.106 366.204 293.434 366.064 293.749H347.676C347.738 293.426 347.804 293.098 347.871 292.774C348.806 288.026 350.268 283.395 352.23 278.964C352.296 278.817 352.362 278.669 352.436 278.522C353.449 276.333 354.64 274.229 355.997 272.232L355.998 272.23L355.998 272.229L356 272.228L356.001 272.228C356.747 271.138 357.547 270.086 358.4 269.076C360.612 266.469 363.225 264.223 366.142 262.422C366.159 262.409 366.179 262.401 366.196 262.389C372.003 258.82 378.884 257.119 385.464 258.59H385.469C385.638 258.627 385.804 258.664 385.973 258.705Z" fill="#44C359"/>
<path id="Vector_56" d="M385.794 258.525C385.655 258.562 385.516 258.604 385.381 258.645C382.51 259.475 379.739 260.625 377.119 262.073C376.988 262.143 376.857 262.218 376.726 262.292C373.104 264.337 369.817 266.936 366.981 269.997C366.979 269.999 366.977 270.002 366.977 270.005C366.944 270.039 366.907 270.076 366.879 270.109C366.223 270.822 365.592 271.564 364.994 272.326C363.824 273.748 362.882 275.347 362.201 277.064C361.68 278.494 361.497 280.028 361.664 281.544C361.676 281.697 361.697 281.846 361.717 282C361.734 282.12 361.75 282.24 361.771 282.364C362.041 284.026 362.508 285.692 362.377 287.388C362.297 288.256 362.037 289.098 361.612 289.857C361.188 290.616 360.61 291.276 359.915 291.793C359.443 292.162 358.938 292.487 358.408 292.763C357.649 293.159 356.858 293.489 356.044 293.749H354.434C354.652 293.687 354.865 293.625 355.082 293.563C355.852 293.343 356.608 293.076 357.347 292.763C357.769 292.585 358.179 292.38 358.576 292.15C360.222 291.192 361.595 289.725 361.881 287.765C362.131 286.049 361.648 284.333 361.361 282.655C361.312 282.364 361.267 282.078 361.242 281.792C361.047 280.339 361.165 278.86 361.59 277.457C362.18 275.708 363.061 274.073 364.196 272.625C364.897 271.682 365.647 270.776 366.44 269.91C366.539 269.798 366.641 269.686 366.747 269.574C369.644 266.492 372.988 263.874 376.664 261.812H376.668C379.402 260.272 382.302 259.056 385.311 258.189H385.315C385.45 258.148 385.59 258.106 385.725 258.069C386.007 257.995 386.073 258.446 385.794 258.525Z" fill="#44C359"/>
<path id="Vector_57" d="M366.752 270.133C365.678 269.044 365.041 267.622 364.957 266.123C364.872 264.624 365.345 263.146 366.291 261.951C366.483 261.709 366.882 261.985 366.69 262.227C365.807 263.338 365.367 264.715 365.448 266.111C365.53 267.507 366.128 268.828 367.135 269.837C367.353 270.057 366.969 270.352 366.752 270.133Z" fill="#44C359"/>
<path id="Vector_58" d="M361.447 281.836C364.509 281.957 367.501 280.811 369.825 278.625C370.055 278.408 370.35 278.81 370.121 279.027C367.698 281.296 364.583 282.483 361.396 282.349C361.092 282.336 361.145 281.824 361.447 281.836Z" fill="white"/>
<path id="Vector_59" d="M377.313 261.946C377.576 262.456 377.94 262.879 378.373 263.179C378.806 263.478 379.294 263.644 379.794 263.662C380.05 263.67 380.006 264.143 379.751 264.135C379.199 264.113 378.66 263.929 378.181 263.599C377.702 263.27 377.298 262.805 377.003 262.245C376.972 262.195 376.958 262.132 376.963 262.07C376.969 262.008 376.994 261.95 377.034 261.91C377.075 261.87 377.127 261.852 377.18 261.859C377.232 261.866 377.28 261.897 377.313 261.946Z" fill="white"/>
</g>
</svg>
